<?xml version="1.0" encoding="UTF-8"?>
<svg id="Layer_2" data-name="Layer 2" xmlns="http://www.w3.org/2000/svg" viewBox="0 0 1279.95 98.47">
  <defs>
    <style>
      .cls-1 {
        fill: #3f4e3e;
      }
    </style>
  </defs>
  <g id="Layer_1-2" data-name="Layer 1">
    <path class="cls-1" d="M0,0v59.18l31.74-10.55,5.36,5.25,5.62-7.9,11.24,4.67,26.15-10.24c36.53,6.92,80.77,24.91,117.23,12.25,31.03-10.77,23.88-9.76,59.6-15.84,13.17-2.23,21.91-8.57,32.52-11.27,31.1-7.98,81.18,11.27,113.99,15.17,24.96-5.15,55.51-9.1,79.54-15.15,17.6-4.43,55.66-20.61,69.83-21.96,29.13-2.79,57.66,11.54,84.71,16.02,7.22-8.41,28.87-24.11,43.34-17.45,3.61,1.67,4.28,7.72,9.9,9.02,6.99,1.62,13.69-1.78,18.19-1.35,4.09.4,37.39,13.1,45.24,14.4,17.34,2.84,28.2-5.65,39.96-4.8,8.22.58,18.01,9.63,26.23,9.6,7.11,0,14.4-7.72,25.19-6.55,9.6,1.03,15.48,9.2,24.15,12.15,45.31,15.46,113.54,22.92,164.02,28.38,31.77,3.45,42.23,2.44,70.88,2.2,13.35-.13,24.37,4.67,31.44,4.51,10.15-.21,33.37-7.51,40.77-7.22,4.28.16,42.89,4.64,48.54,5.44,16.18,2.31,35.91,12.1,54.06,12.71l.36,17.8h.17V0H0Z"/>
  </g>
</svg>