<svg width="1280" height="94" viewBox="0 0 1280 94" fill="none" xmlns="http://www.w3.org/2000/svg">
<path d="M0 55.9947L31.7767 45.9107L37.1349 50.9274L42.7535 43.377L53.9907 47.8363L80.1488 38.0562C116.688 44.6691 160.93 61.8476 197.395 49.7619C228.428 39.4751 221.284 40.4379 257.005 34.6357C270.177 32.5074 278.921 26.4519 289.526 23.8675C320.633 16.2411 370.716 34.6357 403.535 38.3602C428.502 33.4449 459.051 29.6697 483.088 23.8929C500.688 19.6616 538.753 4.20607 552.93 2.91388C582.065 0.253505 610.605 13.9354 637.656 18.2174C644.874 10.1856 666.53 -4.81388 681.005 1.54569C684.614 3.14191 685.284 8.91873 690.902 10.1602C697.898 11.7058 704.595 8.46267 709.098 8.86806C713.191 9.24811 746.493 21.3845 754.344 22.626C771.684 25.3371 782.549 17.2292 794.307 18.04C802.53 18.5974 812.316 27.2373 820.539 27.212C827.646 27.212 834.939 19.839 845.73 20.9538C855.33 21.9419 861.209 29.7457 869.879 32.5581C915.2 47.3295 983.442 54.4492 1033.93 59.6686C1065.71 62.9624 1076.17 61.9996 1104.82 61.7716C1118.18 61.6449 1129.19 66.2309 1136.26 66.0788C1146.42 65.8762 1169.64 58.9085 1177.04 59.1872C1181.32 59.3392 1219.94 63.6212 1225.6 64.3813C1241.79 66.5856 1261.51 75.9349 1279.67 76.5177L1280.04 94.0001H0V55.9947Z" fill="#FFF5FA"/>
</svg>
