<svg width="1280" height="99" viewBox="0 0 1280 99" fill="none" xmlns="http://www.w3.org/2000/svg">
<path d="M1280.04 39.7215L1248.28 50.2976L1242.91 45.0589L1237.3 52.9582L1226.06 48.3085L1199.91 58.5607C1163.37 51.6869 1119.11 33.7761 1082.65 46.4498C1051.63 57.237 1058.78 56.2228 1023.06 62.3268C1009.89 64.5659 1001.16 70.9057 990.553 73.6188C959.455 81.625 909.351 62.4491 876.528 58.5908C851.566 63.7562 821.021 67.7357 796.991 73.8006C779.395 78.2429 741.348 94.4411 727.172 95.8072C698.041 98.6197 669.486 84.3473 642.43 79.9C635.22 88.3043 613.581 104.008 599.1 97.3753C595.489 95.7105 594.812 89.6721 589.192 88.3803C582.195 86.7721 575.501 90.1697 570.998 89.7507C566.905 89.3578 533.589 76.7062 525.736 75.4168C508.394 72.6013 497.538 81.0889 485.779 80.254C477.555 79.6801 467.759 70.6585 459.536 70.6938C452.429 70.7015 445.144 78.4171 434.352 77.2633C424.751 76.2406 418.863 68.0889 410.191 65.1581C364.853 49.7648 296.603 42.3953 246.104 36.9933C214.324 33.5841 203.869 34.6019 175.218 34.8711C161.86 35.0179 150.841 30.2355 143.772 30.4021C133.614 30.6249 110.403 37.9339 102.998 37.6505C98.7189 37.4962 60.0908 33.0614 54.4341 32.2728C38.2456 29.9859 18.1224 19.5932 -0.0364108 19.0036L-0.0364639 1.36782L1280 -0.00934848L1280.04 39.7215Z" fill="#E71A73"/>
</svg>
