<?xml version="1.0" encoding="UTF-8"?>
<svg id="Layer_1" data-name="Layer 1" xmlns="http://www.w3.org/2000/svg" viewBox="0 0 3330 445">
  <defs>
    <style>
      .cls-1 {
        fill: #fffd87;
      }
    </style>
  </defs>
  <g>
    <path class="cls-1" d="M217.85,167.26c-2.19,2.92-2.92,5.74-2.19,8.48.73,2.73,3.28,4.65,7.66,5.74,10.2,2.56,19.87,5.56,28.99,9.03,9.11,3.47,17.68,8.12,25.71,13.95,8.02,5.84,15.32,12.95,21.88,21.33,6.56,8.39,12.21,18.96,16.96,31.72,9.11,23.34,12.21,45.77,9.3,67.28-2.92,21.52-10.03,40.57-21.33,57.16-11.31,16.6-25.71,29.81-43.21,39.66-17.5,9.85-36.29,14.77-56.34,14.77-8.75,0-17.5-1.09-26.25-3.28-22.61-5.11-41.3-8.66-56.07-10.67-14.77-2-27.26-3.01-37.47-3.01-8.03,0-14.86.46-20.51,1.37-5.66.91-10.94,1.83-15.86,2.73-4.92.92-9.76,1.83-14.5,2.74-4.74.91-10.21,1.37-16.41,1.37H3.98c6.56,0,13.95-.82,22.15-2.46,8.2-1.64,15.59-5.47,22.15-11.49,6.56-6.02,11.76-15.04,15.59-27.08,3.83-12.03,4.65-28.44,2.46-49.23-1.46-11.67-4.47-24.97-9.02-39.93-4.56-14.95-9.94-31.72-16.14-50.32-8.03-23.7-12.58-45.13-13.67-64.27-1.09-19.14.27-36.46,4.1-51.96,3.83-15.5,9.57-28.99,17.23-40.48,7.66-11.49,16.14-21.14,25.43-28.99,9.3-7.84,18.87-13.85,28.72-18.05,9.85-4.19,18.78-6.84,26.8-7.93,9.48-1.09,18.23-1.64,26.25-1.64,17.5,0,31.9,2.38,43.21,7.11,11.3,4.74,20.05,11.03,26.25,18.87,6.2,7.85,10.2,16.6,12.03,26.25,1.82,9.67,2.09,19.42.82,29.26-1.28,9.85-3.83,19.33-7.66,28.44-3.83,9.12-8.12,16.96-12.85,23.52ZM54.31,103.81c-5.84,12.03-9.67,25.43-11.49,40.2-1.83,14.77-1.73,28.63.27,41.57,2,12.95,5.83,23.79,11.49,32.54,5.65,8.75,12.85,13.32,21.61,13.67,5.83,0,12.12-2.64,18.87-7.93,6.74-5.28,13.21-11.49,19.42-18.6,6.2-7.11,11.85-14.31,16.96-21.61,5.1-7.29,8.93-12.76,11.49-16.41,6.56-9.48,12.94-20.6,19.14-33.37,6.2-12.76,10.48-25.25,12.85-37.47,2.37-12.21,2.27-22.97-.27-32.27-2.56-9.3-9.12-15.04-19.69-17.23-8.39-1.82-17.5-1.73-27.35.27-9.85,2.01-19.42,5.66-28.72,10.94-9.3,5.29-17.87,11.76-25.71,19.42-7.85,7.66-14.14,16.41-18.87,26.25ZM109,336.82c4.38,12.77,10.12,24.43,17.23,35.01,7.11,10.58,14.95,19.61,23.52,27.08,8.56,7.48,17.59,13.32,27.08,17.5,9.48,4.2,18.78,6.29,27.9,6.29,6.92,0,13.31-1.09,19.14-3.28,10.2-4.01,18.6-10.48,25.16-19.42,6.56-8.93,11.3-19.6,14.22-32,2.91-12.39,3.83-25.89,2.73-40.48-1.09-14.58-4.38-29.35-9.85-44.3-4.74-12.76-10.49-24.25-17.23-34.46-6.75-10.2-14.22-18.96-22.43-26.25-8.2-7.29-16.87-12.94-25.98-16.96-9.12-4.01-18.05-6.02-26.8-6.02-3.65,0-7.11.37-10.39,1.09-3.28.73-6.56,1.64-9.85,2.73-10.21,3.65-18.79,9.85-25.71,18.6-6.93,8.75-11.85,19.14-14.77,31.18-2.92,12.03-3.92,25.25-3.01,39.66.91,14.41,3.91,29.08,9.03,44.03Z"/>
    <path class="cls-1" d="M205.27,439.37c-8.95,0-18.03-1.13-26.98-3.37-22.27-5.03-41.05-8.61-55.74-10.6-14.61-1.98-27.08-2.98-37.06-2.98-7.79,0-14.53.45-20.04,1.33-5.4.87-10.72,1.79-15.79,2.72-4.91.91-9.74,1.83-14.47,2.73-4.89.94-10.6,1.42-16.97,1.42H3.98v-6c6.34,0,13.59-.81,21.56-2.4,7.62-1.52,14.59-5.14,20.71-10.76,6.14-5.63,11.11-14.3,14.76-25.77,3.69-11.58,4.47-27.73,2.34-48-1.43-11.38-4.43-24.64-8.91-39.37-4.58-14.99-10-31.9-16.11-50.25-8.07-23.82-12.72-45.71-13.82-65.05-1.11-19.35.3-37.13,4.19-52.85,3.9-15.76,9.83-29.7,17.65-41.42,7.77-11.66,16.52-21.62,26-29.62,9.48-7.99,19.4-14.22,29.47-18.52,10.07-4.28,19.34-7.02,27.57-8.14,9.61-1.11,18.56-1.67,26.66-1.67,17.81,0,32.73,2.47,44.37,7.34,11.72,4.92,20.95,11.57,27.45,19.78,6.47,8.19,10.72,17.46,12.63,27.56,1.87,9.93,2.16,20.1.85,30.21-1.31,10.1-3.96,19.93-7.87,29.22-3.89,9.26-8.32,17.37-13.19,24.11l-.03.04c-1.62,2.17-2.18,4.1-1.69,5.9.42,1.59,2.27,2.81,5.49,3.61,10.28,2.58,20.15,5.65,29.33,9.13,9.32,3.55,18.21,8.37,26.41,14.33,8.22,5.99,15.78,13.36,22.48,21.91,6.72,8.59,12.58,19.54,17.41,32.53,9.24,23.67,12.43,46.81,9.46,68.73-2.97,21.88-10.31,41.55-21.83,58.45-11.51,16.9-26.39,30.55-44.22,40.58-17.88,10.06-37.33,15.15-57.81,15.15ZM85.48,416.41c10.25,0,22.99,1.02,37.87,3.04,14.87,2.02,33.82,5.63,56.32,10.71,8.54,2.13,17.13,3.21,25.59,3.21,19.44,0,37.9-4.84,54.87-14.38,17.02-9.57,31.22-22.6,42.2-38.73,10.98-16.12,17.99-34.92,20.84-55.87,2.83-20.89-.24-43.03-9.12-65.78-4.63-12.46-10.19-22.86-16.52-30.97-6.35-8.12-13.51-15.1-21.28-20.75-7.77-5.64-16.18-10.21-25.01-13.57-8.96-3.4-18.6-6.4-28.65-8.92-5.5-1.37-8.8-4.03-9.83-7.88-.98-3.63-.08-7.34,2.67-11.03,4.59-6.37,8.8-14.07,12.51-22.9,3.7-8.8,6.2-18.11,7.45-27.67,1.23-9.48.96-19.01-.79-28.32-1.73-9.13-5.58-17.53-11.44-24.95-5.86-7.4-14.29-13.44-25.06-17.96-10.9-4.56-25.04-6.88-42.05-6.88-7.87,0-16.59.55-25.91,1.62-7.64,1.04-16.4,3.64-25.97,7.71-9.52,4.06-18.93,9.98-27.96,17.58-9.05,7.63-17.41,17.17-24.87,28.36-7.43,11.14-13.09,24.44-16.81,39.53-3.74,15.14-5.09,32.32-4.02,51.07,1.07,18.8,5.62,40.16,13.52,63.48,6.14,18.41,11.57,35.37,16.16,50.41,4.58,15.05,7.66,28.66,9.13,40.43,2.23,21.16,1.36,38.14-2.58,50.51-3.97,12.48-9.5,22.03-16.42,28.38-2.39,2.19-4.89,4.11-7.5,5.76,1.9-.36,3.82-.72,5.75-1.08,5.13-.94,10.49-1.87,15.93-2.75,5.82-.93,12.88-1.41,20.99-1.41ZM204.72,425.69c-9.5,0-19.3-2.2-29.11-6.55-9.71-4.29-19.07-10.34-27.83-17.99-8.72-7.6-16.81-16.91-24.04-27.66-7.23-10.74-13.14-22.76-17.58-35.71h0c-5.17-15.13-8.26-30.21-9.18-44.82-.93-14.65.11-28.29,3.09-40.55,3-12.4,8.16-23.28,15.33-32.33,7.24-9.15,16.34-15.73,27.05-19.56,3.37-1.12,6.78-2.07,10.2-2.84,3.5-.77,7.21-1.17,11.05-1.17,9.12,0,18.54,2.11,28.01,6.27,9.37,4.13,18.38,10.01,26.77,17.46,8.35,7.43,16.06,16.46,22.94,26.84,6.84,10.36,12.74,22.16,17.54,35.07,5.54,15.16,8.92,30.34,10.03,45.13,1.11,14.82.17,28.74-2.81,41.39-3.01,12.75-7.96,23.88-14.72,33.09-6.87,9.35-15.78,16.23-26.48,20.43-6.19,2.32-12.99,3.49-20.24,3.49ZM111.84,335.85c4.27,12.45,9.95,24,16.88,34.31,6.93,10.32,14.67,19.23,23,26.49,8.31,7.25,17.16,12.98,26.32,17.02,9.05,4,18.02,6.03,26.68,6.03,6.53,0,12.62-1.04,18.09-3.09,9.59-3.77,17.61-9.96,23.8-18.38,6.29-8.55,10.9-18.95,13.72-30.91,2.83-12.04,3.73-25.36,2.66-39.56-1.07-14.24-4.32-28.87-9.67-43.5-4.64-12.47-10.33-23.86-16.92-33.84-6.58-9.95-13.96-18.59-21.92-25.67-7.92-7.04-16.4-12.57-25.2-16.45-8.7-3.82-17.31-5.76-25.59-5.76-3.4,0-6.68.34-9.74,1.02-3.21.72-6.43,1.61-9.55,2.65-9.57,3.42-17.77,9.35-24.3,17.61-6.63,8.37-11.41,18.47-14.21,30.02-2.84,11.68-3.82,24.72-2.93,38.76.89,14.07,3.87,28.62,8.87,43.25h0ZM76.18,234.8h-.12c-9.74-.4-17.82-5.46-24-15.05-5.86-9.07-9.88-20.41-11.93-33.71-2.04-13.16-2.14-27.43-.29-42.4,1.85-15.02,5.81-28.86,11.76-41.14,4.87-10.12,11.42-19.23,19.48-27.1,7.97-7.79,16.83-14.48,26.32-19.88,9.54-5.42,19.5-9.21,29.6-11.27,10.22-2.08,19.83-2.16,28.58-.27,11.69,2.42,19.08,8.94,21.95,19.37,2.66,9.71,2.77,21.03.33,33.64-2.42,12.43-6.82,25.28-13.1,38.21-6.25,12.86-12.77,24.22-19.38,33.76l-11.5,16.42c-5.14,7.34-10.91,14.69-17.15,21.86-6.32,7.25-13,13.63-19.83,18.99-7.26,5.69-14.23,8.57-20.72,8.57ZM142.47,48.63c-4.57,0-9.34.5-14.28,1.5-9.48,1.93-18.84,5.5-27.83,10.61-9.04,5.15-17.49,11.52-25.09,18.95-7.56,7.38-13.7,15.93-18.26,25.41h0c-5.67,11.69-9.44,24.9-11.21,39.27-1.79,14.42-1.7,28.13.26,40.74,1.93,12.47,5.64,23.02,11.04,31.38,5.12,7.94,11.39,11.96,19.15,12.3,5.1-.02,10.81-2.47,16.96-7.29,6.54-5.12,12.93-11.25,19.01-18.21,6.1-7,11.74-14.19,16.76-21.35l11.49-16.41c6.42-9.28,12.79-20.37,18.9-32.96,6.05-12.46,10.29-24.82,12.61-36.73,2.27-11.69,2.19-22.09-.22-30.91-2.25-8.19-7.94-13.13-17.41-15.08-3.78-.82-7.74-1.23-11.87-1.23Z"/>
  </g>
  <g>
    <path class="cls-1" d="M428.43,436.37c-26.62,0-45.59-7.85-56.89-23.52-11.31-15.67-16.96-37.92-16.96-66.73,0-7.66.36-15.67,1.09-24.07,3.28-42.66,9.75-79.31,19.42-109.94,9.66-30.63,21.51-56.61,35.55-77.94,14.03-21.33,29.81-38.56,47.31-51.69s35.91-23.33,55.24-30.63c19.32-7.29,39.02-12.12,59.07-14.49,20.05-2.37,39.74-3.56,59.07-3.56,7.29,0,12.85,1.46,16.68,4.38,3.83,2.92,6.56,8.3,8.2,16.14,1.64,7.85,2.46,18.14,2.46,30.9,0,1.46-.09,6.38-.27,14.77-.19,8.39-.46,24.89-.82,49.5-.37,24.61-.64,47.04-.82,67.28-.19,20.24-.27,32.91-.27,38.01,0,32.09.55,68.92,1.64,110.49,0,17.5,4.92,32.27,14.77,44.31,9.85,12.03,23.88,18.05,42.12,18.05h-218.79c32.08-1.82,56.61-7.2,73.57-16.14,16.96-8.93,29.17-22.15,36.65-39.66,7.47-17.5,11.67-39.29,12.58-65.36.91-26.07,1.37-57.16,1.37-93.26v-23.25c0-6.38-.55-11.57-1.64-15.59-1.09-4.01-2.92-6.92-5.47-8.75-2.56-1.82-6.38-2.73-11.49-2.73-8.39,0-16.05,4.02-22.97,12.03-6.93,8.02-13.5,18.42-19.69,31.18-6.2,12.77-12.22,27.35-18.05,43.76-5.84,16.41-11.67,33.19-17.5,50.32-5.84,17.14-12.03,33.83-18.6,50.05-6.56,16.23-13.59,30.72-21.06,43.48-7.48,12.77-15.78,23.07-24.89,30.9-9.12,7.84-19.33,11.76-30.63,11.76ZM438.83,369.64c8.38-.36,17.23-5.92,26.53-16.68,9.3-10.75,18.87-24.7,28.72-41.84,9.85-17.14,19.5-36.19,28.99-57.16,9.48-20.96,18.41-41.57,26.8-61.81,8.38-20.24,15.86-38.92,22.43-56.06,6.56-17.14,11.85-30.44,15.86-39.93,4.01-9.48,6.29-16.14,6.84-19.96.55-3.83.82-6.47.82-7.93,0-3.64-.82-6.84-2.46-9.57-1.64-2.73-4.1-4.56-7.38-5.47-3.28-.91-6.75-1.37-10.39-1.37h-3.83c-25.53,1.46-48.41,7.11-68.65,16.96-20.24,9.85-37.74,22.34-52.51,37.47-14.77,15.14-27.08,32.19-36.92,51.14-9.85,18.96-17.23,38.29-22.15,57.98-4.92,19.69-7.48,34.37-7.66,44.03-.19,9.67-.27,14.86-.27,15.59,0,17.87,2,33.83,6.02,47.86,4.01,14.04,10.02,25.35,18.05,33.91,8.02,8.57,17.86,12.85,29.54,12.85h1.64Z"/>
    <path class="cls-1" d="M428.43,439.37c-27.52,0-47.47-8.33-59.32-24.77-11.63-16.12-17.52-39.16-17.52-68.49,0-7.77.37-15.95,1.11-24.33,3.28-42.67,9.86-79.89,19.55-110.58,9.69-30.74,21.77-57.22,35.91-78.69,14.15-21.51,30.31-39.16,48.02-52.44,17.64-13.23,36.47-23.67,55.98-31.04,19.45-7.34,39.56-12.27,59.78-14.67,20.1-2.37,40.09-3.58,59.43-3.58,7.93,0,14.15,1.68,18.5,4.99,4.47,3.41,7.51,9.27,9.32,17.91,1.68,8.01,2.52,18.61,2.52,31.52,0,1.41-.08,5.99-.27,14.83-.19,8.36-.46,25.01-.82,49.48-.37,24.49-.64,47.12-.82,67.26-.18,18.98-.27,32.47-.27,37.99,0,31.91.55,69.06,1.64,110.41,0,16.79,4.74,31.06,14.09,42.48,9.33,11.41,22.35,16.95,39.8,16.95v6h-218.79l-.17-6c31.51-1.79,55.85-7.1,72.34-15.79,16.25-8.56,28.12-21.4,35.29-38.18,7.29-17.09,11.44-38.72,12.34-64.29.91-26.07,1.37-57.41,1.37-93.15v-23.25c0-6.08-.52-11.06-1.54-14.8-.9-3.3-2.36-5.69-4.33-7.1-2.02-1.44-5.3-2.17-9.74-2.17-7.54,0-14.31,3.6-20.7,10.99-6.73,7.79-13.21,18.06-19.26,30.53-6.14,12.63-12.17,27.25-17.92,43.45-5.84,16.42-11.73,33.34-17.49,50.28-5.84,17.16-12.12,34.05-18.66,50.21-6.57,16.26-13.72,31.02-21.25,43.87-7.6,12.99-16.19,23.64-25.52,31.66-9.64,8.29-20.6,12.49-32.59,12.49ZM631.36,36.79c-19.1,0-38.86,1.19-58.72,3.54-19.73,2.34-39.37,7.16-58.37,14.32-18.98,7.17-37.32,17.33-54.5,30.22-17.15,12.87-32.84,30-46.61,50.94-13.83,21.01-25.67,46.98-35.2,77.2-9.55,30.26-16.04,67.02-19.29,109.27-.72,8.23-1.09,16.24-1.09,23.84,0,28.04,5.51,49.9,16.39,64.98,10.65,14.78,28.97,22.28,54.45,22.28,10.51,0,20.16-3.71,28.68-11.04,8.82-7.59,16.98-17.73,24.25-30.15,7.38-12.61,14.4-27.1,20.87-43.09,6.5-16.05,12.73-32.84,18.54-49.89,5.77-16.97,11.67-33.92,17.52-50.36,5.83-16.41,11.95-31.24,18.18-44.06,6.28-12.94,13.05-23.64,20.12-31.83,7.49-8.67,15.98-13.07,25.24-13.07,5.79,0,10.12,1.08,13.23,3.29,3.13,2.25,5.35,5.74,6.62,10.41,1.16,4.26,1.75,9.77,1.75,16.38v23.25c0,35.81-.46,67.23-1.37,93.36-.92,26.32-5.24,48.67-12.82,66.44-7.72,18.08-20.51,31.92-38.01,41.13-8.14,4.29-18.03,7.79-29.61,10.48h145.39c-6.33-3.15-11.8-7.54-16.39-13.15-10.25-12.53-15.45-28.07-15.45-46.21-1.09-41.32-1.64-78.52-1.64-110.49,0-5.54.1-19.05.27-38.04.18-20.15.45-42.79.82-67.3.36-24.49.63-41.15.82-49.52.19-8.8.27-13.33.27-14.7,0-12.49-.81-22.68-2.4-30.29-1.48-7.07-3.87-11.91-7.09-14.37-3.28-2.49-8.28-3.76-14.86-3.76ZM438.89,372.64h-1.71c-12.49,0-23.16-4.65-31.73-13.81-8.31-8.87-14.62-20.69-18.74-35.14-4.07-14.22-6.13-30.6-6.13-48.69,0-.76.08-5.9.27-15.65.18-9.83,2.79-24.87,7.75-44.7,4.95-19.82,12.49-39.55,22.4-58.63,9.94-19.14,22.53-36.58,37.44-51.86,14.95-15.32,32.9-28.12,53.35-38.07,20.5-9.97,43.98-15.78,69.79-17.25h.17s3.83,0,3.83,0c3.88,0,7.64.5,11.19,1.48,4.04,1.13,7.12,3.42,9.16,6.82,1.92,3.19,2.89,6.93,2.89,11.12,0,1.62-.28,4.35-.85,8.36-.59,4.12-2.89,10.89-7.04,20.71-3.99,9.43-9.17,22.46-15.82,39.83-6.48,16.92-14.03,35.81-22.46,56.14-8.41,20.29-17.44,41.12-26.84,61.9-9.5,20.99-19.29,40.31-29.12,57.42-9.9,17.23-19.67,31.47-29.05,42.31-9.82,11.36-19.46,17.32-28.67,17.72h-.06ZM571.83,54.84c-24.98,1.44-47.66,7.04-67.42,16.65-19.82,9.64-37.21,22.05-51.68,36.87-14.49,14.85-26.74,31.82-36.41,50.43-9.69,18.67-17.06,37.96-21.9,57.32-4.85,19.39-7.4,33.98-7.57,43.36-.2,10.31-.27,14.94-.27,15.53,0,17.53,1.99,33.36,5.9,47.04,3.86,13.52,9.7,24.52,17.35,32.69,7.49,8.01,16.44,11.91,27.35,11.91h1.57c7.47-.35,15.65-5.61,24.33-15.65,9.13-10.56,18.68-24.48,28.38-41.38,9.73-16.94,19.44-36.08,28.86-56.9,9.37-20.72,18.37-41.49,26.76-61.72,8.4-20.28,15.94-39.12,22.4-55.99,6.68-17.44,11.88-30.53,15.9-40.03,3.89-9.2,6.12-15.67,6.63-19.22.65-4.57.79-6.61.79-7.51,0-3.08-.68-5.78-2.03-8.03-1.24-2.07-3.08-3.42-5.62-4.12-3.02-.83-6.25-1.26-9.59-1.26h-3.74Z"/>
  </g>
  <g>
    <path class="cls-1" d="M911.96,44.73c-30.63,1.09-54.07,4.38-70.29,9.85-16.23,5.47-27.9,13.59-35.01,24.34-7.11,10.76-10.85,24.53-11.21,41.3-.37,16.78.18,37.38,1.64,61.81.73,12.4,4.56,21.43,11.49,27.08,6.92,5.66,15.13,8.48,24.61,8.48,5.83,0,11.85-1.09,18.05-3.28,6.2-2.19,12.12-5.38,17.78-9.57,5.65-4.19,10.67-9.3,15.04-15.32,4.38-6.02,7.66-12.85,9.85-20.51,6.2-21.14,10.75-39.56,13.67-55.24,2.91-15.67,5.83-28.62,8.75-38.84,2.91-10.2,6.65-17.78,11.21-22.7,4.56-4.92,11.39-7.38,20.51-7.38h94.08c-19.33.37-34.1,3.47-44.31,9.3-10.21,5.84-18.6,14.14-25.16,24.89-6.56,10.76-12.58,23.71-18.05,38.84-5.47,15.14-12.95,32-22.43,50.6-3.28,6.56-7.38,12.31-12.31,17.23s-9.85,9.02-14.77,12.31c-4.92,3.28-9.57,5.93-13.95,7.93-4.38,2.01-7.85,3.74-10.39,5.2-1.83,1.09-3.83,2.38-6.02,3.83-2.19,1.46-3.83,3.01-4.92,4.65-1.09,1.64-1.28,3.38-.55,5.2.73,1.83,3.09,3.65,7.11,5.47,24.43,9.85,43.76,21.61,57.98,35.28,14.22,13.67,25.43,27.9,33.64,42.66s14.67,29.26,19.42,43.48c4.73,14.22,9.93,26.99,15.59,38.29,5.65,11.31,12.94,20.43,21.88,27.35,8.93,6.93,21.79,10.39,38.56,10.39h-364.83c14.58-.36,25.61-2.82,33.09-7.38,7.47-4.56,12.94-11.57,16.41-21.06,3.46-9.48,5.74-21.69,6.84-36.65,1.09-14.95,2.37-32.82,3.83-53.6,1.09-14.22,2-29.08,2.73-44.58.73-15.49,1.09-30.9,1.09-46.22s-.37-30.26-1.09-44.85c-.74-14.58-2.01-28.44-3.83-41.57-1.46-12.03-2.83-23.33-4.1-33.91-1.28-10.57-3.92-19.78-7.93-27.62-4.02-7.84-10.03-14.03-18.05-18.6-8.03-4.56-19.51-6.84-34.46-6.84h218.79ZM898.84,425.98c10.57,0,20.24-1.64,28.99-4.92,8.75-3.28,14.85-9.11,18.32-17.5,3.46-8.38,3.56-20.05.27-35.01-3.28-14.95-11.85-34.09-25.71-57.43-7.3-12.03-16.05-23.79-26.25-35.28-10.21-11.49-22.97-21.96-38.29-31.45-17.5-10.94-30.63-16.41-39.38-16.41-10.21,0-16.41,7.3-18.6,21.88-1.46,10.58-2.19,21.15-2.19,31.72s.36,24.25,1.09,41.02c.73,22.97,4.01,41.39,9.85,55.24,5.83,13.86,13.4,24.34,22.7,31.45,9.3,7.11,19.87,11.67,31.72,13.67,11.85,2.01,24.34,3.01,37.47,3.01Z"/>
    <path class="cls-1" d="M1063.48,430.62h-364.83l-.07-6c13.98-.34,24.62-2.68,31.6-6.95,6.84-4.17,11.94-10.74,15.15-19.53,3.35-9.18,5.6-21.24,6.66-35.84,1.02-13.98,2.28-31.51,3.83-53.6,1.07-13.96,1.99-28.93,2.73-44.51.72-15.44,1.09-30.94,1.09-46.08s-.37-30.17-1.09-44.7c-.73-14.47-2.01-28.36-3.8-41.31-1.47-12.09-2.84-23.38-4.11-33.97-1.23-10.17-3.8-19.13-7.62-26.62-3.72-7.26-9.4-13.1-16.86-17.35-7.53-4.27-18.63-6.44-32.98-6.44v-6h218.79l.11,6c-30.2,1.08-53.57,4.34-69.44,9.69-15.5,5.22-26.76,13.01-33.46,23.15-6.77,10.24-10.37,23.6-10.72,39.71-.36,16.62.19,37.33,1.64,61.56.67,11.47,4.17,19.86,10.39,24.93,6.43,5.25,13.86,7.8,22.72,7.8,5.46,0,11.2-1.05,17.05-3.11,5.89-2.08,11.6-5.16,16.99-9.15,5.38-3.98,10.22-8.92,14.4-14.67,4.15-5.7,7.31-12.29,9.39-19.57,6.14-20.94,10.71-39.43,13.61-54.97,2.92-15.73,5.89-28.89,8.82-39.11,3.03-10.63,7.04-18.67,11.9-23.91,5.12-5.54,12.77-8.34,22.71-8.34h94.08l.06,6c-18.73.36-33.15,3.35-42.87,8.9-9.71,5.55-17.82,13.57-24.09,23.85-6.43,10.53-12.41,23.42-17.79,38.29-5.48,15.15-13.07,32.29-22.57,50.94-3.4,6.8-7.73,12.86-12.86,17.99-5.04,5.04-10.16,9.31-15.23,12.68-5.06,3.37-9.89,6.12-14.36,8.16-4.27,1.96-7.69,3.67-10.15,5.07-1.6.96-3.53,2.19-5.84,3.72-1.84,1.23-3.22,2.52-4.09,3.81-.55.82-.62,1.52-.26,2.41.11.28.88,1.73,5.51,3.83,24.65,9.94,44.46,22.01,58.88,35.88,14.37,13.82,25.87,28.41,34.18,43.37,8.25,14.85,14.86,29.65,19.64,43.99,4.67,14.04,9.86,26.79,15.43,37.89,5.42,10.86,12.5,19.71,21.03,26.32,8.35,6.48,20.7,9.76,36.73,9.76v6ZM926.77,424.62h104.6c-3.05-1.42-5.82-3.1-8.3-5.02-9.25-7.16-16.89-16.71-22.72-28.38-5.69-11.36-10.99-24.37-15.75-38.68-4.67-13.99-11.12-28.45-19.19-42.98-8.02-14.44-19.16-28.56-33.1-41.96-13.87-13.34-33.06-25-57.02-34.66l-.12-.05c-4.86-2.2-7.61-4.46-8.66-7.09-1.1-2.73-.81-5.49.84-7.97,1.31-1.96,3.24-3.8,5.75-5.48,2.4-1.59,4.41-2.87,6.14-3.91,2.67-1.52,6.24-3.31,10.68-5.35,4.19-1.91,8.74-4.5,13.54-7.7,4.74-3.16,9.55-7.17,14.31-11.93s8.62-10.21,11.74-16.45c9.4-18.44,16.9-35.35,22.29-50.27,5.52-15.25,11.68-28.5,18.31-39.38,6.8-11.15,15.63-19.87,26.23-25.93,2.41-1.38,5.06-2.61,7.96-3.69h-56.25c-8.21,0-14.37,2.16-18.31,6.42-4.21,4.55-7.76,11.77-10.53,21.49-2.88,10.05-5.8,23.02-8.69,38.56-2.93,15.74-7.56,34.43-13.75,55.54-2.27,7.94-5.74,15.16-10.3,21.43-4.54,6.24-9.82,11.61-15.68,15.96-5.87,4.35-12.11,7.71-18.56,9.99-6.5,2.29-12.91,3.45-19.05,3.45-10.16,0-19.08-3.08-26.51-9.16-7.57-6.17-11.81-16.01-12.58-29.22-1.46-24.39-2.01-45.27-1.64-62.05.37-17.26,4.31-31.69,11.71-42.88,7.46-11.28,19.76-19.87,36.55-25.53,4.43-1.49,9.4-2.83,14.9-4h-128.86c.81.39,1.6.8,2.35,1.23,8.5,4.84,14.97,11.51,19.24,19.84,4.15,8.12,6.92,17.75,8.24,28.63,1.27,10.58,2.64,21.88,4.1,33.91,1.81,13.07,3.11,27.14,3.85,41.78.73,14.63,1.1,29.77,1.1,45s-.37,30.83-1.1,46.36c-.74,15.64-1.66,30.67-2.74,44.67-1.55,22.07-2.8,39.6-3.83,53.59-1.11,15.15-3.47,27.75-7.01,37.46-3.69,10.09-9.63,17.69-17.67,22.59-1.06.65-2.19,1.25-3.38,1.82h124.73c-9.83-2.49-18.83-6.83-26.82-12.94-9.69-7.41-17.64-18.4-23.64-32.67-5.95-14.13-9.34-33.07-10.08-56.31-.73-16.57-1.1-30.41-1.1-41.12s.75-21.49,2.22-32.14c1.68-11.18,6.78-24.47,21.57-24.47,9.41,0,22.81,5.52,40.97,16.86,15.49,9.59,28.59,20.36,38.94,32,10.28,11.57,19.22,23.58,26.58,35.72,13.97,23.54,22.74,43.16,26.07,58.34,3.4,15.49,3.25,27.87-.43,36.8-3.78,9.15-10.53,15.6-20.04,19.17-.7.26-1.4.51-2.11.75ZM816.79,230.97c-3.15,0-12.73,0-15.63,19.32-1.43,10.34-2.15,20.88-2.15,31.28s.37,24.38,1.09,40.89c.71,22.54,3.95,40.76,9.61,54.21,5.59,13.3,12.91,23.47,21.76,30.23,8.87,6.79,19.1,11.19,30.4,13.1,11.61,1.97,24.05,2.97,36.97,2.97,10.16,0,19.56-1.59,27.94-4.73,8.01-3,13.44-8.19,16.6-15.84,3.21-7.77,3.25-18.95.12-33.22-3.2-14.56-11.73-33.58-25.36-56.54-7.16-11.8-15.88-23.52-25.92-34.82-9.96-11.21-22.62-21.6-37.63-30.89-16.95-10.59-29.66-15.96-37.8-15.96Z"/>
  </g>
  <g>
    <path class="cls-1" d="M1249.45,44.73c-30.63,1.09-54.07,4.38-70.29,9.85-16.23,5.47-27.9,13.59-35.01,24.34-7.11,10.76-10.85,24.53-11.21,41.3-.37,16.78.18,37.38,1.64,61.81.73,12.4,4.56,21.43,11.49,27.08,6.92,5.66,15.13,8.48,24.61,8.48,5.83,0,11.85-1.09,18.05-3.28,6.2-2.19,12.12-5.38,17.78-9.57,5.65-4.19,10.67-9.3,15.04-15.32,4.38-6.02,7.66-12.85,9.85-20.51,6.2-21.14,10.75-39.56,13.67-55.24,2.91-15.67,5.83-28.62,8.75-38.84,2.91-10.2,6.65-17.78,11.21-22.7,4.56-4.92,11.39-7.38,20.51-7.38h94.08c-19.33.37-34.1,3.47-44.31,9.3-10.21,5.84-18.6,14.14-25.16,24.89-6.56,10.76-12.58,23.71-18.05,38.84-5.47,15.14-12.95,32-22.43,50.6-3.28,6.56-7.38,12.31-12.31,17.23s-9.85,9.02-14.77,12.31c-4.92,3.28-9.57,5.93-13.95,7.93-4.38,2.01-7.85,3.74-10.39,5.2-1.83,1.09-3.83,2.38-6.02,3.83-2.19,1.46-3.83,3.01-4.92,4.65-1.09,1.64-1.28,3.38-.55,5.2.73,1.83,3.09,3.65,7.11,5.47,24.43,9.85,43.76,21.61,57.98,35.28,14.22,13.67,25.43,27.9,33.64,42.66s14.67,29.26,19.42,43.48c4.73,14.22,9.93,26.99,15.59,38.29,5.65,11.31,12.94,20.43,21.88,27.35,8.93,6.93,21.79,10.39,38.56,10.39h-364.83c14.58-.36,25.61-2.82,33.09-7.38,7.47-4.56,12.94-11.57,16.41-21.06,3.46-9.48,5.74-21.69,6.84-36.65,1.09-14.95,2.37-32.82,3.83-53.6,1.09-14.22,2-29.08,2.73-44.58.73-15.49,1.09-30.9,1.09-46.22s-.37-30.26-1.09-44.85c-.74-14.58-2.01-28.44-3.83-41.57-1.46-12.03-2.83-23.33-4.1-33.91-1.28-10.57-3.92-19.78-7.93-27.62-4.02-7.84-10.03-14.03-18.05-18.6-8.03-4.56-19.51-6.84-34.46-6.84h218.79ZM1236.32,425.98c10.57,0,20.24-1.64,28.99-4.92,8.75-3.28,14.85-9.11,18.32-17.5,3.46-8.38,3.56-20.05.27-35.01-3.28-14.95-11.85-34.09-25.71-57.43-7.3-12.03-16.05-23.79-26.25-35.28-10.21-11.49-22.97-21.96-38.29-31.45-17.5-10.94-30.63-16.41-39.38-16.41-10.21,0-16.41,7.3-18.6,21.88-1.46,10.58-2.19,21.15-2.19,31.72s.36,24.25,1.09,41.02c.73,22.97,4.01,41.39,9.85,55.24,5.83,13.86,13.4,24.34,22.7,31.45,9.3,7.11,19.87,11.67,31.72,13.67,11.85,2.01,24.34,3.01,37.47,3.01Z"/>
    <path class="cls-1" d="M1400.96,430.62h-364.83l-.07-6c13.98-.34,24.62-2.68,31.6-6.95,6.84-4.17,11.94-10.74,15.15-19.53,3.35-9.18,5.6-21.24,6.66-35.84,1.02-13.98,2.28-31.51,3.83-53.6,1.07-13.96,1.99-28.93,2.73-44.51.72-15.44,1.09-30.94,1.09-46.08s-.37-30.17-1.09-44.7c-.73-14.47-2.01-28.36-3.8-41.31-1.47-12.09-2.84-23.38-4.11-33.97-1.23-10.17-3.8-19.13-7.62-26.62-3.72-7.26-9.4-13.1-16.86-17.35-7.53-4.27-18.63-6.44-32.98-6.44v-6h218.79l.11,6c-30.2,1.08-53.57,4.34-69.44,9.69-15.5,5.22-26.76,13.01-33.46,23.15-6.77,10.24-10.37,23.6-10.72,39.71-.36,16.62.19,37.33,1.64,61.56.67,11.47,4.17,19.86,10.39,24.93,6.43,5.25,13.86,7.8,22.72,7.8,5.46,0,11.2-1.05,17.05-3.11,5.89-2.08,11.6-5.16,16.99-9.15,5.38-3.98,10.22-8.92,14.4-14.67,4.15-5.7,7.31-12.29,9.39-19.57,6.14-20.94,10.71-39.43,13.61-54.97,2.92-15.73,5.89-28.89,8.82-39.11,3.04-10.63,7.04-18.67,11.9-23.91,5.12-5.54,12.77-8.34,22.71-8.34h94.08l.06,6c-18.73.36-33.15,3.35-42.87,8.9-9.71,5.55-17.82,13.57-24.09,23.85-6.43,10.53-12.41,23.42-17.79,38.29-5.48,15.15-13.07,32.29-22.57,50.94-3.4,6.8-7.73,12.86-12.86,17.99-5.04,5.04-10.16,9.31-15.23,12.68-5.06,3.37-9.89,6.12-14.36,8.16-4.27,1.96-7.69,3.67-10.15,5.07-1.6.96-3.53,2.19-5.84,3.72-1.84,1.23-3.22,2.52-4.09,3.81-.55.82-.62,1.52-.26,2.41.11.28.88,1.73,5.51,3.83,24.65,9.94,44.46,22.01,58.88,35.88,14.37,13.82,25.87,28.41,34.18,43.37,8.25,14.85,14.86,29.65,19.64,43.99,4.67,14.04,9.86,26.79,15.43,37.89,5.42,10.86,12.5,19.71,21.03,26.32,8.35,6.48,20.7,9.76,36.72,9.76v6ZM1264.26,424.62h104.6c-3.05-1.42-5.82-3.1-8.3-5.02-9.25-7.16-16.89-16.71-22.72-28.38-5.69-11.36-10.99-24.37-15.75-38.68-4.67-13.99-11.12-28.45-19.19-42.98-8.02-14.44-19.16-28.56-33.1-41.96-13.87-13.34-33.06-25-57.02-34.66l-.12-.05c-4.86-2.2-7.61-4.46-8.66-7.09-1.1-2.73-.81-5.49.84-7.97,1.31-1.96,3.24-3.8,5.75-5.48,2.4-1.59,4.41-2.87,6.14-3.91,2.67-1.52,6.24-3.31,10.68-5.35,4.19-1.91,8.74-4.5,13.54-7.7,4.74-3.16,9.55-7.17,14.31-11.93s8.62-10.21,11.74-16.45c9.4-18.44,16.9-35.35,22.29-50.27,5.52-15.25,11.68-28.5,18.31-39.38,6.8-11.15,15.63-19.87,26.23-25.93,2.41-1.38,5.06-2.61,7.96-3.69h-56.25c-8.21,0-14.37,2.16-18.31,6.42-4.21,4.55-7.76,11.77-10.53,21.49-2.88,10.05-5.8,23.02-8.69,38.56-2.93,15.74-7.56,34.43-13.74,55.54-2.27,7.94-5.74,15.16-10.3,21.43-4.54,6.24-9.82,11.61-15.68,15.96-5.87,4.35-12.11,7.71-18.56,9.99-6.5,2.29-12.91,3.45-19.05,3.45-10.16,0-19.08-3.08-26.51-9.16-7.57-6.17-11.81-16.01-12.58-29.22-1.46-24.39-2.01-45.27-1.65-62.05.37-17.26,4.31-31.69,11.71-42.88,7.46-11.28,19.76-19.87,36.55-25.53,4.43-1.49,9.4-2.83,14.9-4h-128.86c.81.39,1.6.8,2.35,1.23,8.5,4.84,14.97,11.51,19.24,19.84,4.15,8.12,6.92,17.75,8.24,28.63,1.27,10.58,2.64,21.88,4.1,33.91,1.81,13.07,3.11,27.14,3.85,41.78.73,14.63,1.1,29.77,1.1,45s-.37,30.83-1.1,46.36c-.74,15.64-1.66,30.67-2.74,44.67-1.55,22.07-2.8,39.6-3.83,53.59-1.11,15.15-3.47,27.75-7.01,37.46-3.69,10.09-9.63,17.69-17.67,22.59-1.06.65-2.19,1.25-3.38,1.82h124.73c-9.83-2.49-18.83-6.83-26.82-12.94-9.69-7.41-17.64-18.4-23.64-32.67-5.95-14.13-9.34-33.07-10.08-56.31-.73-16.57-1.1-30.41-1.1-41.12s.75-21.49,2.22-32.14c1.68-11.18,6.78-24.47,21.57-24.47,9.41,0,22.81,5.52,40.97,16.86,15.49,9.59,28.59,20.36,38.94,32,10.28,11.57,19.22,23.58,26.58,35.72,13.97,23.54,22.74,43.16,26.07,58.34,3.4,15.49,3.25,27.87-.43,36.8-3.78,9.15-10.53,15.6-20.04,19.17-.7.26-1.4.51-2.11.75ZM1154.28,230.97c-3.15,0-12.73,0-15.63,19.32-1.43,10.34-2.15,20.88-2.15,31.28s.37,24.38,1.09,40.89c.71,22.54,3.95,40.76,9.61,54.21,5.59,13.3,12.91,23.47,21.76,30.23,8.87,6.79,19.1,11.19,30.4,13.1,11.61,1.97,24.05,2.97,36.97,2.97,10.16,0,19.56-1.59,27.94-4.73,8.01-3,13.44-8.19,16.6-15.84,3.21-7.77,3.25-18.95.12-33.22-3.2-14.56-11.73-33.58-25.36-56.54-7.16-11.8-15.88-23.52-25.92-34.82-9.96-11.21-22.62-21.6-37.63-30.89-16.95-10.59-29.66-15.96-37.8-15.96Z"/>
  </g>
  <g>
    <path class="cls-1" d="M1398.24,427.62c16.41-18.6,27.53-41.75,33.37-69.47,5.83-27.71,8.75-58.71,8.75-92.99,0-9.48-.19-19.32-.55-29.54-.74-17.14-2.65-36.1-5.74-56.89-3.1-20.79-7.2-40.66-12.31-59.62-5.11-18.96-11.31-35.37-18.6-49.23-7.3-13.85-15.32-22.24-24.07-25.16h265.28l44.31,174.49c-9.49-31.36-20.33-57.24-32.55-77.67-12.22-20.42-24.89-36.65-38.01-48.68-13.13-12.03-26.17-20.69-39.11-25.98-12.95-5.28-24.89-8.48-35.83-9.57-4.74-.36-9.49-.55-14.22-.55-6.56,0-13.95.64-22.15,1.91-8.21,1.28-16.05,4.1-23.52,8.48-7.48,4.38-13.32,10.12-17.5,17.23-4.2,7.11-6.29,15.59-6.29,25.43,0,18.96,3.74,35.55,11.21,49.77,7.47,14.22,16.77,26.08,27.9,35.55,11.12,9.49,23.33,16.6,36.65,21.33,13.31,4.74,25.98,7.11,38.01,7.11,8.75,0,15.77-1.82,21.06-5.47,5.28-3.64,9.3-8.29,12.03-13.95,2.73-5.65,4.19-10.67,4.38-15.04.18-4.38.27-7.47.27-9.3,0-5.47-.37-10.57-1.09-15.32l30.63,150.97c-5.84-8.02-13.13-17.04-21.88-27.08-8.75-10.03-18.24-19.42-28.44-28.17-10.21-8.75-20.97-16.14-32.27-22.15-11.31-6.02-22.43-9.02-33.37-9.02-15.32,0-27.17,5.66-35.55,16.96-8.39,11.31-13.5,24.8-15.32,40.48-.74,6.56-1.09,12.95-1.09,19.14,0,9.49,1.09,20.24,3.28,32.27,2.19,12.03,7.02,23.98,14.49,35.83,7.47,11.85,17.14,21.52,28.99,28.99,11.85,7.48,26.16,11.58,42.94,12.31,3.28.37,6.56.55,9.85.55,21.88,0,40.56-4.56,56.07-13.67,15.5-9.11,28.53-22.43,39.11-39.93,10.57-17.5,19.14-38.1,25.71-61.81,6.56-23.7,13.13-49.23,19.69-76.58l-37.74,204.02h-276.77Z"/>
    <path class="cls-1" d="M1677.5,430.62h-285.91l4.4-4.98c15.98-18.11,26.98-41.03,32.68-68.1,5.76-27.4,8.69-58.48,8.69-92.37,0-9.22-.18-19.12-.54-29.43-.73-16.94-2.65-35.97-5.71-56.55-3.07-20.56-7.19-40.51-12.24-59.28-5.03-18.66-11.21-35.02-18.35-48.61-6.89-13.08-14.41-21.06-22.36-23.71l-17.5-5.85h286.07l.58,2.26,44.31,174.49-5.78,1.61c-9.37-30.98-20.22-56.89-32.25-77-12.02-20.09-24.63-36.24-37.47-48.01-12.79-11.73-25.65-20.28-38.22-25.42-12.64-5.15-24.41-8.31-34.99-9.36-4.65-.35-9.36-.53-13.92-.53-6.36,0-13.66.63-21.69,1.88-7.81,1.22-15.37,3.95-22.46,8.1-7,4.1-12.53,9.54-16.43,16.16-3.9,6.61-5.88,14.65-5.88,23.91,0,18.39,3.66,34.66,10.87,48.38,7.26,13.82,16.4,25.48,27.19,34.67,10.79,9.21,22.8,16.2,35.71,20.79,12.91,4.6,25.37,6.94,37.01,6.94,8.09,0,14.6-1.66,19.36-4.94,4.83-3.33,8.54-7.63,11.04-12.78,2.54-5.24,3.91-9.91,4.08-13.87.18-4.46.27-7.46.27-9.17,0-5.27-.36-10.27-1.06-14.86l5.91-1.05,33.37,164.46-8.1-11.13c-5.77-7.93-13.08-16.97-21.71-26.87-8.61-9.86-18.08-19.24-28.13-27.86-10-8.57-20.67-15.89-31.73-21.78-10.81-5.75-21.57-8.67-31.96-8.67-14.44,0-25.28,5.15-33.14,15.74-8.03,10.82-12.99,23.96-14.75,39.04-.71,6.35-1.07,12.68-1.07,18.8,0,9.26,1.09,19.94,3.23,31.73,2.11,11.61,6.85,23.31,14.08,34.76,7.2,11.42,16.63,20.86,28.05,28.05,11.34,7.16,25.3,11.15,41.47,11.85l.2.02c3.13.35,6.33.53,9.51.53,21.23,0,39.58-4.46,54.54-13.26,14.98-8.81,27.78-21.89,38.06-38.9,10.39-17.2,18.93-37.74,25.38-61.06,6.52-23.53,13.13-49.26,19.67-76.48l5.87,1.25-38.2,206.48ZM1404.67,424.62h267.84l21.84-118.09c-6.39,21.57-14.6,40.72-24.44,57-10.8,17.87-24.31,31.65-40.16,40.96-15.89,9.35-35.27,14.09-57.59,14.09-3.37,0-6.76-.19-10.08-.55-17.19-.76-32.09-5.05-44.31-12.76-12.18-7.68-22.25-17.74-29.93-29.93-7.64-12.11-12.66-24.52-14.91-36.89-2.21-12.15-3.33-23.19-3.33-32.81,0-6.34.37-12.89,1.11-19.48,1.88-16.15,7.22-30.25,15.89-41.93,8.95-12.06,21.72-18.17,37.96-18.17,11.38,0,23.08,3.15,34.77,9.38,11.45,6.09,22.49,13.67,32.82,22.52,10.28,8.81,19.95,18.39,28.75,28.47,5.18,5.93,9.88,11.57,14.08,16.85l-22.03-108.59c-.76,3.35-2.07,6.96-3.92,10.78-2.95,6.1-7.33,11.18-13.03,15.11-5.77,3.98-13.43,6-22.76,6-12.33,0-25.46-2.45-39.02-7.28-13.59-4.83-26.24-12.19-37.59-21.88-11.36-9.68-20.99-21.94-28.6-36.44-7.67-14.58-11.56-31.8-11.56-51.17,0-10.35,2.26-19.42,6.71-26.96,4.43-7.52,10.68-13.67,18.57-18.29,7.75-4.54,16.01-7.52,24.57-8.85,8.34-1.29,15.95-1.95,22.62-1.95,4.71,0,9.58.19,14.45.56,11.23,1.12,23.56,4.41,36.73,9.79,13.23,5.41,26.69,14.34,40,26.55,13.26,12.16,26.24,28.76,38.56,49.35,4.58,7.65,8.98,16.11,13.2,25.35l-29.87-117.62h-251.87c5.58,4.67,10.82,11.61,15.64,20.76,7.35,13.99,13.69,30.76,18.84,49.85,5.11,18.99,9.27,39.17,12.38,59.96,3.09,20.79,5.04,40.03,5.77,57.2.37,10.4.55,20.37.55,29.66,0,34.3-2.97,65.8-8.82,93.6-5.41,25.68-15.45,47.8-29.87,65.85Z"/>
  </g>
  <path class="cls-1" d="M2029.96,5.08c16.96,2.73,32.72,6.29,47.31,10.67,14.58,4.38,26.07,9.12,34.46,14.22l-49.23,156.98c0-13.85-5.47-24.15-16.41-30.9-10.94-6.74-22.79-10.12-35.55-10.12-5.84,0-11.31.55-16.41,1.64-5.11,1.09-9.67,2.65-13.67,4.65-4.02,2.01-7.38,4.65-10.12,7.93-2.73,3.28-4.84,7.11-6.29,11.49-1.46,4.38-2.19,9.3-2.19,14.77,0,.37.18.55.55.55h100.1l-39.38,126.9h-61.26v113.77h-190.9v-113.77h-42.12c4.73-14.22,9.48-28.35,14.22-42.39,4.73-14.03,9.38-28.17,13.95-42.39,4.56-14.22,9.21-28.25,13.95-42.12v-5.47c0-36.1,8.56-67.73,25.71-94.9,17.14-27.16,41.38-48.22,72.75-63.18,31.36-14.95,68.37-22.43,111.04-22.43,16.04,0,32.55,1.37,49.5,4.1Z"/>
  <path class="cls-1" d="M2319.58,304c19.32,0,34.27-3.46,44.85-10.39,10.57-6.92,16.04-16.41,16.41-28.44l169.02,55.25c-6.56,22.97-20.51,43.85-41.84,62.63-21.33,18.79-48.23,33.64-80.68,44.58-32.46,10.94-68.74,16.41-108.85,16.41-34.28,0-66.28-3.83-96-11.49-29.72-7.66-55.79-19.23-78.22-34.73-22.43-15.5-40.02-34.91-52.78-58.25-12.77-23.33-19.14-50.5-19.14-81.5s6.38-58.16,19.14-81.5c12.76-23.33,30.36-42.75,52.78-58.25,22.43-15.5,48.59-27.08,78.49-34.73,29.9-7.66,61.81-11.49,95.72-11.49s66.46,3.83,95.45,11.49c28.99,7.66,53.96,19.42,74.94,35.28,20.96,15.86,37.2,35.92,48.68,60.17,11.49,24.26,17.23,52.97,17.23,86.15h-298.65v.55c0,5.47,1.45,10.58,4.38,15.32,2.91,4.74,7.02,8.84,12.31,12.31,5.28,3.47,11.85,6.11,19.69,7.93,7.84,1.83,16.86,2.74,27.08,2.74ZM2318.49,210.47c-17.87,0-32.64,3.2-44.31,9.57-11.67,6.38-17.5,15.41-17.5,27.08v1.09h122.52c.36,0,.55-.08.55-.27v-.82c0-5.83-1.55-11.03-4.65-15.59-3.1-4.56-7.38-8.38-12.85-11.49-5.47-3.09-11.95-5.47-19.42-7.11-7.48-1.64-15.59-2.46-24.34-2.46Z"/>
  <path class="cls-1" d="M2564.63,196.79c0-20.79,5.92-38.84,17.78-54.15,11.85-15.32,27.98-28.17,48.41-38.56,20.42-10.39,43.57-18.14,69.47-23.25,25.89-5.1,52.87-7.66,80.95-7.66,34.64,0,66.82,3.1,96.54,9.3,29.72,6.2,56.61,14.41,80.68,24.61v126.9c-10.21-7.66-23.61-14.22-40.2-19.69-16.6-5.47-34.1-9.66-52.51-12.58-18.42-2.91-35.83-4.38-52.24-4.38-10.94,0-20.88.64-29.81,1.91-8.94,1.28-16.05,3.2-21.33,5.74-5.29,2.56-7.93,5.84-7.93,9.85,0,2.19.82,3.83,2.46,4.92,1.64,1.09,4.1,1.83,7.38,2.19,3.28.37,7.47.55,12.58.55h44.31c18.23,0,36.55,1.19,54.97,3.56,18.41,2.38,35.19,7.03,50.32,13.95,15.13,6.93,27.25,16.87,36.37,29.81,9.11,12.95,13.67,30,13.67,51.14,0,22.25-6.11,41.12-18.32,56.61-12.22,15.5-28.81,28.08-49.78,37.74-20.97,9.67-44.49,16.68-70.56,21.06-26.08,4.38-53.15,6.56-81.23,6.56-33.19,0-65.91-3.1-98.18-9.3-32.27-6.2-59.89-15.32-82.87-27.35v-133.46c9.11,9.85,22.15,17.96,39.11,24.34,16.96,6.38,35.37,11.13,55.25,14.22,19.87,3.1,38.56,4.65,56.06,4.65,11.3,0,21.51-.63,30.63-1.91,9.11-1.27,16.32-3.28,21.61-6.02,5.28-2.74,7.93-6.29,7.93-10.67,0-1.82-.55-3.09-1.64-3.83-1.09-.73-2.83-1.27-5.2-1.64-2.38-.36-5.56-.55-9.57-.55h-32.82c-12.77,0-26.9-.45-42.39-1.37-15.5-.91-30.9-2.91-46.22-6.02-15.32-3.09-29.26-8.02-41.84-14.77-12.58-6.74-22.7-16.04-30.36-27.9-7.66-11.85-11.49-26.71-11.49-44.58Z"/>
  <path class="cls-1" d="M2994,284.85V87.4l187.07-44.85v191.99c0,6.93,1.55,12.95,4.65,18.05,3.09,5.11,7.47,9.39,13.13,12.85,5.65,3.47,12.31,6.11,19.96,7.93,7.66,1.83,16.22,2.74,25.71,2.74,10.57,0,21.33-1.64,32.27-4.92,10.94-3.28,20.87-7.84,29.81-13.67,8.93-5.83,15.4-12.58,19.42-20.24v166.28c-15.68,12.4-35.92,21.61-60.71,27.62-24.8,6.02-49.6,9.02-74.39,9.02-37.56,0-71.2-6.11-100.92-18.32-29.72-12.21-53.15-29.9-70.29-53.06-17.14-23.15-25.71-51.14-25.71-83.96ZM3181.61,237.27c4.38-16.77,8.66-33.37,12.85-49.77,4.19-16.41,8.38-32.9,12.58-49.5,4.19-16.59,8.29-33.09,12.31-49.5h106.66v148.78h-144.4Z"/>
</svg>