<svg width="1280" height="154" viewBox="0 0 1280 154" fill="none" xmlns="http://www.w3.org/2000/svg">
<path d="M-0.00195312 154H1280C1276.67 139.762 1274 125.326 1266.24 112.269C1262.87 106.593 1240.04 90.5499 1234.01 98.3582C1233.9 91.6326 1204.68 87.5972 1200.39 89.172C1197.72 90.1562 1200.35 97.6036 1189.99 94.4868C1177.45 84.9726 1173.75 78.3454 1156.03 76.0488C1134.98 73.3586 1126.07 91.2061 1115.37 90.5171C1111.82 90.2874 1107.38 84.3492 1102.57 83.2994C1072.53 76.7378 1034.8 69.5529 1006.09 60.5963C984.229 53.7723 954.671 34.3501 929.922 32.6769C917.788 31.8567 912.941 38.3854 904.692 38.7135C888.858 39.3369 864.109 28.051 849.311 29.3633C839.582 30.2163 812.428 41.2069 792.34 44.3893C785.2 45.5047 775.693 52.0991 772.067 51.607C763.078 50.4259 747.651 38.7135 740.844 36.6794C686.574 20.3411 663.97 51.4101 616.063 49.212C596.863 48.3262 580.437 34.8422 567.674 32.7753C556.354 30.938 543.517 34.4813 531.753 31.8239C524.687 30.2491 516.696 21.2269 507.855 20.1771C497.2 18.8976 484.437 26.6402 473.413 24.5733C455.434 21.2269 445.002 -1.4761 415.887 0.0986763C401.57 10.9253 383.554 15.3215 368.682 23.3266C360.359 27.7885 355.624 36.0561 346.671 39.8946C318.999 51.771 258.255 58.9888 227.956 59.8746C221.001 60.0714 215.008 66.7314 207.24 63.9099C192.997 58.7591 176.572 18.6023 157.963 23.2938C148.641 35.5311 133.621 36.4826 123.707 42.3224C117.011 46.2593 113.718 56.0032 107.503 60.7604C88.7842 75.1302 53.9357 91.5998 36.8442 106.363C22.8235 118.437 12.7981 140.319 -0.00195312 154.066V154Z" fill="#E71A73"/>
</svg>
