<svg width="1280" height="99" viewBox="0 0 1280 99" fill="none" xmlns="http://www.w3.org/2000/svg">
<path d="M-54 58.4996L-20.8827 47.9644L-15.2985 53.2055L-9.44286 45.3174L2.26842 49.9762L29.5301 39.7587C67.6112 46.6674 113.719 64.6142 151.723 51.9879C184.065 41.241 176.619 42.2469 213.847 36.1852C227.575 33.9617 236.688 27.6353 247.74 24.9354C280.159 16.9678 332.356 36.1852 366.559 40.0763C392.58 34.9411 424.417 30.997 449.469 24.9618C467.811 20.5413 507.482 4.39451 522.257 3.04453C552.621 0.265165 582.364 14.5591 610.557 19.0325C618.08 10.6415 640.649 -5.02887 655.734 1.61514C659.496 3.28276 660.194 9.31797 666.05 10.615C673.34 12.2297 680.32 8.8415 685.013 9.26503C689.278 9.66208 723.986 22.3413 732.168 23.6383C750.239 26.4706 761.563 18.0002 773.817 18.8472C782.387 19.4296 792.586 28.4559 801.156 28.4294C808.563 28.4294 816.163 20.7266 827.409 21.8913C837.414 22.9236 843.541 31.0765 852.577 34.0146C899.81 49.4468 970.931 56.8849 1023.55 62.3377C1056.67 65.7789 1067.57 64.773 1097.43 64.5348C1111.35 64.4024 1122.83 69.1935 1130.2 69.0347C1140.78 68.8229 1164.98 61.5436 1172.7 61.8348C1177.16 61.9936 1217.41 66.4671 1223.3 67.2612C1240.17 69.5641 1260.73 79.3316 1279.65 79.9404L1280.04 98.2048H-54V58.4996Z" fill="#FFF5FA"/>
</svg>
