<?xml version="1.0" encoding="UTF-8"?>
<svg id="Layer_2" data-name="Layer 2" xmlns="http://www.w3.org/2000/svg" viewBox="0 0 1280 196.15">
  <defs>
    <style>
      .cls-1 {
        fill: #e71a73;
      }
    </style>
  </defs>
  <g id="Layer_1-2" data-name="Layer 1">
    <path class="cls-1" d="M1279.47,0c-3.27,17.74-5.97,35.69-13.64,51.95-3.36,7.16-26.19,27.42-32.22,17.57-.11,8.49-29.33,13.59-33.63,11.61-2.66-1.24-.03-10.64-10.39-6.7-12.54,12.01-16.25,20.37-33.96,23.28-21.06,3.4-29.96-19.11-40.66-18.24-3.55.29-7.99,7.79-12.8,9.11-30.05,8.29-67.78,17.38-96.48,28.69-21.87,8.62-51.42,33.14-76.17,35.26-12.13,1.04-16.98-7.19-25.23-7.6-15.83-.78-40.58,13.47-55.38,11.82-9.73-1.07-36.88-14.93-56.97-18.93-7.14-1.4-16.65-9.72-20.27-9.1-8.99,1.49-24.42,16.28-31.22,18.85-54.27,20.64-76.87-18.55-124.78-15.75-19.2,1.13-35.63,18.15-48.39,20.76-11.32,2.32-24.16-2.14-35.92,1.22-7.07,1.99-15.06,13.38-23.9,14.71-10.65,1.62-23.42-8.14-34.44-5.53-17.98,4.23-28.41,32.88-57.53,30.91-14.32-13.65-32.33-19.19-47.2-29.28-8.32-5.63-13.06-16.05-22.01-20.89-27.67-14.97-88.42-24.05-118.71-25.15-6.96-.24-12.95-8.64-20.72-5.08-14.24,6.51-30.67,57.18-49.28,51.27-9.32-15.44-24.34-16.63-34.26-23.99-6.7-4.96-9.99-17.26-16.2-23.26-18.72-18.12-53.57-38.89-70.66-57.5C22.57,44.92,12.61,17.75,0,.38v195.77h1280V0h-.53Z"/>
  </g>
</svg>