<svg width="1280" height="79" viewBox="0 0 1280 79" fill="none" xmlns="http://www.w3.org/2000/svg">
<path d="M0 47.0544L31.7758 38.5781L37.1338 42.795L42.7522 36.4484L53.9891 40.1967L80.1465 31.976C116.685 37.5346 160.926 51.974 197.39 41.8153C228.421 33.1687 221.277 33.978 256.997 29.1009C270.169 27.312 278.913 22.222 289.517 20.0497C320.623 13.6392 370.705 29.1009 403.523 32.2316C428.49 28.1 459.038 24.9267 483.074 20.071C500.674 16.5144 538.738 3.52314 552.914 2.43699C582.048 0.200791 610.587 11.7012 637.637 15.3004C644.856 8.54924 666.511 -4.05865 680.985 1.28692C684.594 2.62864 685.264 7.48438 690.882 8.52794C697.877 9.82706 704.575 7.10102 709.077 7.44177C713.17 7.76123 746.471 17.9625 754.322 19.0061C771.661 21.2849 782.526 14.4698 794.284 15.1513C802.507 15.6199 812.293 22.8822 820.516 22.8609C827.622 22.8609 834.915 16.6634 845.706 17.6005C855.305 18.4311 861.184 24.9906 869.854 27.3546C915.173 39.7708 983.413 45.7553 1033.9 50.1425C1065.68 52.9111 1076.14 52.1018 1104.79 51.9101C1118.14 51.8036 1129.16 55.6584 1136.23 55.5306C1146.39 55.3603 1169.6 49.5035 1177.01 49.7378C1181.29 49.8656 1219.91 53.4648 1225.56 54.1037C1241.75 55.9566 1261.84 64.0102 1280 64.5V79H0V47.0544Z" fill="#3F4E3E"/>
</svg>
