<?xml version="1.0" encoding="UTF-8"?>
<svg id="Layer_1" xmlns="http://www.w3.org/2000/svg" version="1.1" viewBox="0 0 1280 99">
  <!-- Generator: Adobe Illustrator 29.5.1, SVG Export Plug-In . SVG Version: 2.1.0 Build 141)  -->
  <defs>
    <style>
      .st0 {
        fill: #e71a73;
      }
    </style>
  </defs>
  <path class="st0" d="M1,19.4v59.1l31.7-10.5,5.4,5.2,5.6-7.9,11.2,4.7,26.2-10.2c36.5,6.9,80.8,24.9,117.2,12.2,31-10.7,23.9-9.7,59.6-15.8,13.2-2.2,21.9-8.5,32.5-11.2,31.1-8,81.2,11.2,114,15.1,25-5.1,55.5-9.1,79.5-15.1,17.6-4.4,55.7-20.6,69.8-21.9,29.1-2.8,57.7,11.5,84.7,16,7.2-8.4,28.9-24.1,43.3-17.4,3.6,1.7,4.3,7.7,9.9,9,7,1.6,13.7-1.8,18.2-1.3,4.1.4,37.4,13.1,45.2,14.4,17.3,2.8,28.2-5.6,40-4.8,8.2.6,18,9.6,26.2,9.6,7.1,0,14.4-7.7,25.2-6.5,9.6,1,15.5,9.2,24.1,12.1,45.3,15.4,113.5,22.9,164,28.3,31.8,3.4,42.2,2.4,70.9,2.2,13.4-.1,24.4,4.7,31.4,4.5,10.2-.2,33.4-7.5,40.8-7.2,4.3.2,42.9,4.6,48.5,5.4,16.2,2.3,35.9,12.1,54.1,12.7l.4,18.3H1c0,0,1280,0,1280,0V19.4H1Z"/>
</svg>