<?xml version="1.0" encoding="UTF-8"?>
<svg id="Layer_1" data-name="Layer 1" xmlns="http://www.w3.org/2000/svg" viewBox="0 0 4201.38 767.23">
  <defs>
    <style>
      .cls-1 {
        fill: #e71a73;
      }
    </style>
  </defs>
  <g>
    <path class="cls-1" d="M263.22,316.96c-2.19,2.92-2.92,5.74-2.19,8.48.73,2.73,3.28,4.65,7.66,5.74,10.2,2.56,19.87,5.56,28.99,9.03,9.11,3.47,17.68,8.12,25.71,13.95,8.02,5.84,15.32,12.95,21.88,21.33,6.56,8.39,12.21,18.96,16.96,31.72,9.11,23.34,12.21,45.77,9.3,67.28-2.92,21.52-10.03,40.57-21.33,57.16-11.31,16.6-25.71,29.81-43.21,39.66-17.5,9.85-36.29,14.77-56.34,14.77-8.75,0-17.5-1.09-26.25-3.28-22.61-5.11-41.3-8.66-56.07-10.67-14.77-2-27.26-3.01-37.47-3.01-8.03,0-14.86.46-20.51,1.37-5.66.91-10.94,1.83-15.86,2.73-4.92.92-9.76,1.83-14.5,2.74-4.74.91-10.21,1.37-16.41,1.37h-14.22c6.56,0,13.95-.82,22.15-2.46,8.2-1.64,15.59-5.47,22.15-11.49,6.56-6.02,11.76-15.04,15.59-27.08,3.83-12.03,4.65-28.44,2.46-49.23-1.46-11.67-4.47-24.97-9.02-39.93-4.56-14.95-9.94-31.72-16.14-50.32-8.03-23.7-12.58-45.13-13.67-64.27-1.09-19.14.27-36.46,4.1-51.96,3.83-15.5,9.57-28.99,17.23-40.48,7.66-11.49,16.14-21.14,25.43-28.99,9.3-7.84,18.87-13.85,28.72-18.05,9.85-4.19,18.78-6.84,26.8-7.93,9.48-1.09,18.23-1.64,26.25-1.64,17.5,0,31.9,2.38,43.21,7.11,11.3,4.74,20.05,11.03,26.25,18.87,6.2,7.85,10.2,16.6,12.03,26.25,1.82,9.67,2.09,19.42.82,29.26-1.28,9.85-3.83,19.33-7.66,28.44-3.83,9.12-8.12,16.96-12.85,23.52ZM99.67,253.51c-5.84,12.03-9.67,25.43-11.49,40.2-1.83,14.77-1.73,28.63.27,41.57,2,12.95,5.83,23.79,11.49,32.54,5.65,8.75,12.85,13.32,21.61,13.67,5.83,0,12.12-2.64,18.87-7.93,6.74-5.28,13.21-11.49,19.42-18.6,6.2-7.11,11.85-14.31,16.96-21.61,5.1-7.29,8.93-12.76,11.49-16.41,6.56-9.48,12.94-20.6,19.14-33.37,6.2-12.76,10.48-25.25,12.85-37.47,2.37-12.21,2.27-22.97-.27-32.27-2.56-9.3-9.12-15.04-19.69-17.23-8.39-1.82-17.5-1.73-27.35.27-9.85,2.01-19.42,5.66-28.72,10.94-9.3,5.29-17.87,11.76-25.71,19.42-7.85,7.66-14.14,16.41-18.87,26.25ZM154.37,486.52c4.38,12.77,10.12,24.43,17.23,35.01,7.11,10.58,14.95,19.61,23.52,27.08,8.56,7.48,17.59,13.32,27.08,17.5,9.48,4.2,18.78,6.29,27.9,6.29,6.92,0,13.31-1.09,19.14-3.28,10.2-4.01,18.6-10.48,25.16-19.42,6.56-8.93,11.3-19.6,14.22-32,2.91-12.39,3.83-25.89,2.73-40.48-1.09-14.58-4.38-29.35-9.85-44.3-4.74-12.76-10.49-24.25-17.23-34.46-6.75-10.2-14.22-18.96-22.43-26.25-8.2-7.29-16.87-12.94-25.98-16.96-9.12-4.01-18.05-6.02-26.8-6.02-3.65,0-7.11.37-10.39,1.09-3.28.73-6.56,1.64-9.85,2.73-10.21,3.65-18.79,9.85-25.71,18.6-6.93,8.75-11.85,19.14-14.77,31.18-2.92,12.03-3.92,25.25-3.01,39.66.91,14.41,3.91,29.08,9.03,44.03Z"/>
    <path class="cls-1" d="M250.64,589.07c-8.95,0-18.03-1.13-26.98-3.37-22.27-5.03-41.05-8.61-55.74-10.6-14.61-1.98-27.08-2.98-37.06-2.98-7.79,0-14.53.45-20.04,1.33-5.4.87-10.72,1.79-15.79,2.72-4.91.91-9.74,1.83-14.47,2.73-4.89.94-10.6,1.42-16.97,1.42h-14.22v-6c6.34,0,13.59-.81,21.56-2.4,7.62-1.53,14.59-5.14,20.71-10.76,6.14-5.63,11.11-14.3,14.76-25.77,3.69-11.58,4.47-27.73,2.34-48-1.43-11.38-4.43-24.64-8.91-39.37-4.58-14.99-10-31.9-16.11-50.25-8.07-23.82-12.72-45.71-13.82-65.05-1.11-19.35.3-37.13,4.19-52.85,3.9-15.76,9.83-29.7,17.65-41.42,7.77-11.65,16.52-21.62,26-29.62,9.48-7.99,19.4-14.22,29.47-18.52,10.07-4.28,19.35-7.02,27.57-8.14,9.61-1.11,18.56-1.67,26.66-1.67,17.81,0,32.73,2.47,44.37,7.34,11.72,4.92,20.95,11.57,27.45,19.78,6.47,8.19,10.72,17.46,12.63,27.56,1.87,9.94,2.16,20.1.85,30.21-1.31,10.1-3.96,19.93-7.87,29.22-3.89,9.26-8.32,17.37-13.19,24.11l-.03.04c-1.62,2.17-2.18,4.1-1.69,5.9.42,1.59,2.27,2.81,5.49,3.61,10.28,2.58,20.15,5.65,29.33,9.13,9.32,3.55,18.21,8.37,26.41,14.32,8.22,5.99,15.78,13.36,22.48,21.91,6.72,8.59,12.58,19.54,17.41,32.53,9.24,23.67,12.43,46.81,9.46,68.73-2.97,21.88-10.31,41.55-21.83,58.45-11.51,16.9-26.39,30.55-44.22,40.58-17.88,10.06-37.33,15.15-57.81,15.15ZM130.85,566.12c10.25,0,22.99,1.02,37.87,3.04,14.87,2.02,33.82,5.63,56.32,10.71,8.54,2.13,17.13,3.21,25.59,3.21,19.44,0,37.9-4.84,54.87-14.38,17.02-9.57,31.22-22.6,42.2-38.73,10.98-16.12,17.99-34.92,20.84-55.87,2.83-20.89-.24-43.03-9.12-65.78-4.63-12.46-10.19-22.86-16.52-30.97-6.35-8.11-13.51-15.1-21.28-20.75-7.77-5.64-16.18-10.21-25.01-13.57-8.95-3.4-18.59-6.4-28.65-8.92-5.5-1.37-8.8-4.03-9.83-7.88-.98-3.63-.08-7.34,2.67-11.03,4.59-6.37,8.8-14.07,12.51-22.9,3.7-8.8,6.2-18.11,7.45-27.67,1.23-9.48.96-19.01-.79-28.32-1.73-9.13-5.58-17.53-11.44-24.95-5.86-7.4-14.29-13.44-25.06-17.96-10.9-4.56-25.04-6.88-42.05-6.88-7.87,0-16.59.55-25.91,1.62-7.64,1.04-16.4,3.64-25.97,7.71-9.52,4.06-18.93,9.98-27.96,17.58-9.05,7.63-17.42,17.17-24.87,28.36-7.43,11.14-13.09,24.44-16.81,39.53-3.74,15.14-5.09,32.32-4.02,51.07,1.07,18.8,5.62,40.16,13.52,63.48,6.14,18.41,11.57,35.37,16.16,50.41,4.58,15.05,7.66,28.66,9.13,40.43,2.23,21.16,1.36,38.14-2.58,50.51s-9.5,22.03-16.42,28.38c-2.39,2.19-4.89,4.11-7.5,5.76,1.9-.36,3.82-.72,5.75-1.08,5.13-.94,10.49-1.87,15.93-2.75,5.82-.93,12.88-1.41,20.99-1.41ZM250.09,575.4c-9.5,0-19.3-2.2-29.11-6.55-9.71-4.29-19.07-10.34-27.83-17.99-8.72-7.6-16.81-16.91-24.04-27.66-7.23-10.74-13.14-22.76-17.58-35.71h0c-5.17-15.13-8.26-30.21-9.18-44.82-.93-14.65.11-28.29,3.09-40.55,3-12.4,8.16-23.28,15.33-32.33,7.24-9.15,16.34-15.73,27.05-19.56,3.38-1.13,6.79-2.07,10.2-2.84,3.5-.77,7.22-1.17,11.05-1.17,9.12,0,18.54,2.11,28.01,6.27,9.38,4.13,18.38,10.01,26.77,17.46,8.35,7.43,16.06,16.46,22.94,26.84,6.84,10.36,12.74,22.16,17.54,35.07,5.54,15.16,8.92,30.34,10.03,45.12,1.11,14.82.17,28.75-2.81,41.39-3.01,12.75-7.96,23.88-14.72,33.09-6.87,9.35-15.78,16.23-26.48,20.43-6.19,2.32-12.99,3.49-20.24,3.49ZM157.21,485.55c4.27,12.45,9.95,24,16.88,34.31,6.93,10.32,14.67,19.23,23,26.49,8.31,7.25,17.16,12.98,26.32,17.02,9.05,4,18.02,6.03,26.68,6.03,6.53,0,12.62-1.04,18.09-3.09,9.59-3.77,17.61-9.96,23.8-18.38,6.29-8.55,10.9-18.95,13.72-30.91,2.83-12.04,3.73-25.36,2.66-39.56-1.07-14.24-4.32-28.87-9.67-43.5-4.64-12.47-10.33-23.86-16.92-33.84-6.58-9.95-13.96-18.58-21.92-25.67-7.92-7.04-16.4-12.57-25.2-16.45-8.7-3.82-17.31-5.76-25.59-5.76-3.4,0-6.68.34-9.74,1.02-3.21.72-6.42,1.61-9.55,2.65-9.57,3.42-17.77,9.36-24.3,17.61-6.63,8.37-11.41,18.47-14.21,30.02-2.84,11.68-3.82,24.72-2.93,38.76.89,14.07,3.87,28.62,8.87,43.25h0ZM121.55,384.5h-.12c-9.74-.4-17.82-5.46-24-15.05-5.86-9.07-9.88-20.41-11.93-33.71-2.04-13.16-2.14-27.43-.29-42.4,1.85-15.02,5.81-28.86,11.76-41.14,4.87-10.12,11.42-19.23,19.48-27.1,7.97-7.79,16.83-14.48,26.32-19.88,9.54-5.42,19.5-9.21,29.6-11.27,10.21-2.08,19.83-2.17,28.58-.27,11.69,2.42,19.08,8.94,21.95,19.37,2.66,9.71,2.77,21.03.33,33.64-2.42,12.43-6.82,25.28-13.1,38.21-6.25,12.86-12.77,24.22-19.38,33.76l-11.5,16.42c-5.14,7.34-10.91,14.69-17.15,21.86-6.32,7.25-13,13.64-19.83,18.99-7.26,5.69-14.23,8.57-20.72,8.57ZM187.84,198.33c-4.57,0-9.34.5-14.27,1.5-9.48,1.93-18.84,5.5-27.83,10.61-9.04,5.15-17.49,11.52-25.09,18.96-7.56,7.38-13.7,15.93-18.26,25.41h0c-5.67,11.69-9.44,24.9-11.21,39.27-1.79,14.42-1.7,28.13.26,40.74,1.93,12.46,5.64,23.02,11.04,31.38,5.12,7.94,11.39,11.96,19.15,12.3,5.1-.02,10.81-2.47,16.96-7.29,6.54-5.12,12.93-11.25,19.01-18.21,6.1-7,11.74-14.19,16.76-21.35l11.49-16.41c6.42-9.28,12.79-20.37,18.9-32.96,6.05-12.46,10.29-24.82,12.61-36.73,2.27-11.69,2.19-22.09-.22-30.91-2.25-8.19-7.94-13.13-17.41-15.08-3.78-.82-7.74-1.23-11.87-1.23Z"/>
  </g>
  <g>
    <path class="cls-1" d="M473.8,586.07c-26.62,0-45.59-7.85-56.89-23.52-11.31-15.67-16.96-37.92-16.96-66.73,0-7.66.36-15.67,1.09-24.07,3.28-42.66,9.75-79.31,19.42-109.94,9.66-30.63,21.51-56.61,35.55-77.94,14.03-21.33,29.81-38.56,47.31-51.69s35.91-23.33,55.24-30.63c19.32-7.29,39.02-12.12,59.07-14.49,20.05-2.37,39.74-3.56,59.07-3.56,7.29,0,12.85,1.46,16.68,4.38,3.83,2.92,6.56,8.3,8.2,16.14,1.64,7.85,2.46,18.14,2.46,30.9,0,1.46-.09,6.38-.27,14.77-.19,8.39-.46,24.89-.82,49.5-.37,24.61-.64,47.04-.82,67.28-.19,20.24-.27,32.91-.27,38.01,0,32.09.55,68.92,1.64,110.49,0,17.5,4.92,32.27,14.77,44.31,9.85,12.03,23.88,18.05,42.12,18.05h-218.79c32.08-1.82,56.61-7.2,73.57-16.14,16.96-8.93,29.17-22.15,36.65-39.66,7.47-17.5,11.67-39.29,12.58-65.36.91-26.07,1.37-57.16,1.37-93.26v-23.25c0-6.38-.55-11.57-1.64-15.59-1.09-4.01-2.92-6.92-5.47-8.75-2.56-1.82-6.38-2.73-11.49-2.73-8.39,0-16.05,4.02-22.97,12.03-6.93,8.02-13.5,18.42-19.69,31.18-6.2,12.77-12.22,27.35-18.05,43.76-5.84,16.41-11.67,33.19-17.5,50.32-5.84,17.14-12.03,33.83-18.6,50.05-6.56,16.23-13.59,30.72-21.06,43.48-7.48,12.77-15.78,23.07-24.89,30.9-9.12,7.84-19.33,11.76-30.63,11.76ZM484.19,519.34c8.38-.36,17.23-5.92,26.53-16.68,9.3-10.75,18.87-24.7,28.72-41.84,9.85-17.14,19.5-36.19,28.99-57.16,9.48-20.96,18.41-41.57,26.8-61.81,8.38-20.24,15.86-38.92,22.43-56.06,6.56-17.14,11.85-30.44,15.86-39.93,4.01-9.48,6.29-16.14,6.84-19.96.55-3.83.82-6.47.82-7.93,0-3.64-.82-6.84-2.46-9.57-1.64-2.73-4.1-4.56-7.38-5.47-3.28-.91-6.75-1.37-10.39-1.37h-3.83c-25.53,1.46-48.41,7.11-68.65,16.96-20.24,9.85-37.74,22.34-52.51,37.47-14.77,15.14-27.08,32.19-36.92,51.14-9.85,18.96-17.23,38.29-22.15,57.98-4.92,19.69-7.48,34.37-7.66,44.03-.19,9.67-.27,14.86-.27,15.59,0,17.87,2,33.83,6.02,47.86,4.01,14.04,10.02,25.35,18.05,33.91,8.02,8.57,17.86,12.85,29.54,12.85h1.64Z"/>
    <path class="cls-1" d="M473.8,589.07c-27.52,0-47.47-8.33-59.32-24.77-11.63-16.12-17.52-39.16-17.52-68.49,0-7.77.37-15.96,1.11-24.33,3.28-42.67,9.86-79.89,19.55-110.58,9.69-30.74,21.77-57.22,35.91-78.69,14.15-21.51,30.31-39.16,48.02-52.44,17.64-13.23,36.47-23.67,55.98-31.04,19.45-7.34,39.56-12.27,59.78-14.67,20.1-2.37,40.1-3.58,59.43-3.58,7.93,0,14.15,1.68,18.5,4.99,4.47,3.41,7.51,9.27,9.32,17.91,1.68,8.01,2.52,18.61,2.52,31.52,0,1.41-.08,5.99-.27,14.83-.19,8.36-.46,25.01-.82,49.48-.37,24.49-.64,47.12-.82,67.26-.18,18.97-.27,32.46-.27,37.99,0,31.91.55,69.06,1.64,110.41,0,16.79,4.74,31.06,14.09,42.49,9.33,11.41,22.35,16.95,39.8,16.95v6h-218.79l-.17-6c31.51-1.79,55.85-7.1,72.34-15.79,16.25-8.56,28.12-21.4,35.29-38.18,7.29-17.09,11.44-38.72,12.34-64.29.91-26.07,1.37-57.41,1.37-93.15v-23.25c0-6.08-.52-11.06-1.54-14.8-.9-3.3-2.36-5.69-4.33-7.1-2.02-1.44-5.3-2.17-9.74-2.17-7.54,0-14.31,3.6-20.7,11-6.73,7.79-13.21,18.06-19.26,30.53-6.14,12.63-12.17,27.25-17.92,43.45-5.84,16.42-11.73,33.34-17.49,50.28-5.84,17.16-12.12,34.05-18.66,50.21-6.57,16.26-13.72,31.02-21.25,43.88-7.6,12.99-16.19,23.64-25.52,31.66-9.64,8.29-20.6,12.49-32.59,12.49ZM676.73,186.5c-19.1,0-38.85,1.19-58.72,3.54-19.73,2.34-39.37,7.16-58.37,14.32-18.98,7.17-37.32,17.34-54.5,30.22-17.15,12.86-32.84,30-46.61,50.94-13.83,21.01-25.67,46.98-35.2,77.2-9.55,30.26-16.04,67.02-19.29,109.27-.72,8.23-1.09,16.24-1.09,23.84,0,28.04,5.51,49.9,16.39,64.98,10.65,14.78,28.97,22.28,54.45,22.28,10.51,0,20.16-3.71,28.68-11.04,8.82-7.59,16.98-17.73,24.25-30.14,7.38-12.61,14.4-27.11,20.87-43.09,6.5-16.05,12.73-32.84,18.54-49.89,5.77-16.97,11.67-33.92,17.52-50.36,5.83-16.41,11.95-31.24,18.18-44.06,6.28-12.94,13.05-23.64,20.12-31.83,7.49-8.67,15.98-13.07,25.24-13.07,5.79,0,10.12,1.08,13.23,3.29,3.13,2.25,5.35,5.74,6.62,10.4,1.16,4.26,1.75,9.77,1.75,16.38v23.25c0,35.81-.46,67.23-1.37,93.36-.92,26.32-5.24,48.67-12.82,66.44-7.72,18.08-20.51,31.92-38.01,41.13-8.14,4.29-18.03,7.79-29.61,10.48h145.39c-6.33-3.15-11.8-7.54-16.39-13.15-10.25-12.53-15.45-28.07-15.45-46.21-1.09-41.32-1.64-78.52-1.64-110.49,0-5.54.1-19.05.27-38.04.18-20.15.45-42.79.82-67.29.36-24.49.63-41.15.82-49.52.19-8.8.27-13.33.27-14.7,0-12.49-.81-22.68-2.4-30.29-1.48-7.07-3.87-11.91-7.09-14.37-3.28-2.5-8.28-3.76-14.86-3.76ZM484.26,522.34h-1.71c-12.49,0-23.16-4.64-31.73-13.81-8.31-8.87-14.62-20.69-18.74-35.14-4.07-14.21-6.13-30.6-6.13-48.68,0-.76.08-5.9.27-15.65.18-9.83,2.79-24.87,7.75-44.7,4.96-19.82,12.49-39.55,22.4-58.63,9.94-19.13,22.53-36.58,37.44-51.86,14.95-15.32,32.9-28.12,53.35-38.07,20.5-9.97,43.98-15.78,69.79-17.25h.17s3.83,0,3.83,0c3.88,0,7.65.5,11.19,1.48,4.04,1.13,7.12,3.42,9.16,6.82,1.92,3.2,2.89,6.94,2.89,11.12,0,1.62-.28,4.35-.85,8.36-.59,4.12-2.89,10.89-7.04,20.71-3.99,9.43-9.17,22.46-15.82,39.83-6.47,16.91-14.03,35.8-22.46,56.14-8.41,20.29-17.44,41.11-26.84,61.9-9.5,20.99-19.29,40.31-29.12,57.42-9.9,17.23-19.67,31.47-29.05,42.31-9.82,11.36-19.46,17.32-28.67,17.72h-.06ZM617.19,204.55c-24.98,1.44-47.66,7.04-67.42,16.65-19.82,9.64-37.21,22.05-51.68,36.87-14.49,14.85-26.74,31.82-36.41,50.43-9.69,18.67-17.06,37.96-21.9,57.32-4.85,19.39-7.4,33.98-7.57,43.36-.2,10.32-.27,14.94-.27,15.53,0,17.53,1.99,33.36,5.9,47.04,3.86,13.52,9.7,24.52,17.35,32.69,7.49,8.01,16.44,11.91,27.35,11.91h1.57c7.47-.35,15.65-5.61,24.33-15.65,9.13-10.55,18.68-24.48,28.38-41.38,9.73-16.94,19.44-36.08,28.86-56.9,9.37-20.73,18.38-41.49,26.76-61.72,8.41-20.29,15.94-39.13,22.4-55.99,6.68-17.44,11.88-30.53,15.9-40.03,3.89-9.2,6.12-15.67,6.63-19.22.65-4.57.79-6.61.79-7.51,0-3.08-.68-5.78-2.03-8.03-1.24-2.07-3.08-3.42-5.62-4.12-3.02-.83-6.25-1.26-9.59-1.26h-3.74Z"/>
  </g>
  <g>
    <path class="cls-1" d="M957.33,194.44c-30.63,1.09-54.07,4.38-70.29,9.85-16.23,5.47-27.9,13.59-35.01,24.34-7.11,10.76-10.85,24.53-11.21,41.3-.37,16.78.18,37.38,1.64,61.81.73,12.4,4.56,21.43,11.49,27.08,6.92,5.66,15.13,8.48,24.61,8.48,5.83,0,11.85-1.09,18.05-3.28,6.2-2.19,12.12-5.38,17.78-9.57,5.65-4.19,10.67-9.3,15.04-15.32,4.38-6.02,7.66-12.85,9.85-20.51,6.2-21.14,10.75-39.56,13.67-55.24,2.91-15.67,5.83-28.62,8.75-38.84,2.91-10.2,6.65-17.78,11.21-22.7,4.56-4.92,11.39-7.38,20.51-7.38h94.08c-19.33.37-34.1,3.47-44.31,9.3-10.21,5.84-18.6,14.14-25.16,24.89-6.56,10.76-12.58,23.71-18.05,38.84-5.47,15.14-12.95,32-22.43,50.6-3.28,6.56-7.38,12.31-12.31,17.23s-9.85,9.02-14.77,12.31c-4.92,3.28-9.57,5.93-13.95,7.93-4.38,2.01-7.85,3.74-10.39,5.2-1.83,1.09-3.83,2.38-6.02,3.83-2.19,1.46-3.83,3.01-4.92,4.65-1.09,1.64-1.28,3.38-.55,5.2.73,1.83,3.09,3.65,7.11,5.47,24.43,9.85,43.76,21.61,57.98,35.28,14.22,13.67,25.43,27.9,33.64,42.66s14.67,29.26,19.42,43.48c4.73,14.22,9.93,26.99,15.59,38.29,5.65,11.31,12.94,20.43,21.88,27.35,8.93,6.93,21.79,10.39,38.56,10.39h-364.83c14.58-.36,25.61-2.82,33.09-7.38,7.47-4.56,12.94-11.57,16.41-21.06,3.46-9.48,5.74-21.69,6.84-36.65,1.09-14.95,2.37-32.82,3.83-53.6,1.09-14.22,2-29.08,2.73-44.58.73-15.49,1.09-30.9,1.09-46.22s-.37-30.26-1.09-44.85c-.74-14.58-2.01-28.44-3.83-41.57-1.46-12.03-2.83-23.33-4.1-33.91-1.28-10.57-3.92-19.78-7.93-27.62-4.02-7.84-10.03-14.03-18.05-18.6-8.03-4.56-19.51-6.84-34.46-6.84h218.79ZM944.2,575.68c10.57,0,20.24-1.64,28.99-4.92,8.75-3.28,14.85-9.11,18.32-17.5,3.46-8.38,3.56-20.05.27-35.01-3.28-14.95-11.85-34.09-25.71-57.43-7.3-12.03-16.05-23.79-26.25-35.28-10.21-11.49-22.97-21.96-38.29-31.45-17.5-10.94-30.63-16.41-39.38-16.41-10.21,0-16.41,7.3-18.6,21.88-1.46,10.58-2.19,21.15-2.19,31.72s.36,24.25,1.09,41.02c.73,22.97,4.01,41.39,9.85,55.24,5.83,13.86,13.4,24.34,22.7,31.45,9.3,7.11,19.87,11.67,31.72,13.67,11.85,2.01,24.34,3.01,37.47,3.01Z"/>
    <path class="cls-1" d="M1108.84,580.32h-364.83l-.07-6c13.98-.34,24.62-2.68,31.6-6.95,6.84-4.17,11.94-10.74,15.15-19.53,3.35-9.18,5.6-21.24,6.66-35.84,1.02-13.98,2.28-31.51,3.83-53.59,1.07-13.96,1.99-28.93,2.73-44.51.72-15.44,1.09-30.94,1.09-46.08s-.37-30.17-1.09-44.7c-.73-14.46-2.01-28.36-3.8-41.31-1.47-12.08-2.84-23.38-4.11-33.97-1.23-10.17-3.8-19.13-7.62-26.62-3.72-7.27-9.4-13.11-16.86-17.35-7.53-4.28-18.63-6.44-32.98-6.44v-6h218.79l.11,6c-30.21,1.08-53.57,4.34-69.44,9.69-15.5,5.22-26.76,13.01-33.46,23.15-6.77,10.24-10.37,23.6-10.72,39.71-.36,16.62.19,37.33,1.64,61.57.67,11.47,4.17,19.86,10.39,24.93,6.43,5.25,13.86,7.8,22.72,7.8,5.46,0,11.2-1.05,17.05-3.11,5.88-2.08,11.6-5.16,16.99-9.15,5.38-3.99,10.22-8.92,14.4-14.67,4.15-5.7,7.31-12.29,9.39-19.57,6.14-20.94,10.71-39.43,13.61-54.97,2.92-15.72,5.89-28.88,8.82-39.11,3.04-10.63,7.04-18.67,11.9-23.91,5.12-5.54,12.76-8.34,22.71-8.34h94.08l.06,6c-18.73.36-33.15,3.35-42.87,8.9-9.71,5.55-17.82,13.58-24.09,23.85-6.43,10.53-12.41,23.42-17.79,38.29-5.48,15.15-13.07,32.29-22.57,50.94-3.4,6.8-7.73,12.86-12.86,17.99-5.04,5.04-10.16,9.3-15.23,12.68-5.06,3.37-9.89,6.12-14.36,8.16-4.27,1.96-7.69,3.67-10.15,5.07-1.6.96-3.53,2.18-5.84,3.72-1.84,1.23-3.22,2.52-4.09,3.81-.55.82-.62,1.52-.26,2.41.11.28.88,1.73,5.51,3.83,24.65,9.94,44.46,22.01,58.88,35.88,14.37,13.82,25.87,28.41,34.18,43.37,8.25,14.85,14.86,29.65,19.64,43.99,4.67,14.04,9.86,26.79,15.43,37.89,5.42,10.86,12.5,19.71,21.03,26.32,8.35,6.48,20.7,9.76,36.73,9.76v6ZM972.14,574.32h104.6c-3.05-1.42-5.82-3.1-8.3-5.02-9.25-7.16-16.89-16.71-22.72-28.38-5.69-11.36-10.99-24.37-15.75-38.68-4.67-13.99-11.12-28.45-19.19-42.97-8.02-14.44-19.16-28.56-33.1-41.96-13.87-13.34-33.06-25-57.02-34.66l-.12-.05c-4.86-2.2-7.61-4.46-8.66-7.09-1.1-2.73-.81-5.49.84-7.97,1.31-1.96,3.24-3.8,5.75-5.48,2.4-1.59,4.41-2.87,6.14-3.91,2.67-1.52,6.25-3.31,10.68-5.35,4.19-1.92,8.74-4.5,13.53-7.7,4.74-3.16,9.55-7.17,14.31-11.93,4.67-4.67,8.62-10.21,11.74-16.45,9.4-18.44,16.9-35.35,22.29-50.27,5.52-15.25,11.68-28.5,18.31-39.38,6.8-11.15,15.63-19.87,26.23-25.93,2.41-1.38,5.06-2.61,7.96-3.69h-56.25c-8.21,0-14.37,2.16-18.31,6.42-4.21,4.55-7.76,11.77-10.53,21.49-2.88,10.05-5.8,23.02-8.69,38.56-2.93,15.74-7.56,34.43-13.75,55.54-2.27,7.94-5.74,15.16-10.3,21.43-4.54,6.24-9.82,11.61-15.68,15.96-5.87,4.35-12.11,7.71-18.56,9.99-6.5,2.29-12.91,3.45-19.05,3.45-10.16,0-19.08-3.08-26.51-9.16-7.57-6.17-11.81-16.01-12.58-29.22-1.46-24.39-2.01-45.27-1.64-62.05.37-17.26,4.31-31.69,11.71-42.89,7.46-11.28,19.76-19.87,36.55-25.53,4.43-1.49,9.4-2.83,14.9-4h-128.86c.81.39,1.6.8,2.35,1.23,8.5,4.84,14.97,11.51,19.24,19.84,4.15,8.12,6.92,17.75,8.24,28.63,1.27,10.58,2.64,21.88,4.1,33.91,1.81,13.07,3.11,27.14,3.85,41.78.73,14.63,1.1,29.78,1.1,45s-.37,30.83-1.1,46.36c-.74,15.64-1.66,30.67-2.74,44.67-1.55,22.07-2.8,39.6-3.83,53.59-1.11,15.15-3.47,27.75-7.01,37.46-3.69,10.09-9.63,17.69-17.67,22.59-1.06.65-2.19,1.25-3.38,1.82h124.73c-9.83-2.49-18.83-6.83-26.82-12.94-9.69-7.41-17.64-18.4-23.64-32.67-5.95-14.13-9.34-33.07-10.08-56.31-.73-16.57-1.1-30.41-1.1-41.12s.75-21.49,2.22-32.13c1.68-11.18,6.78-24.47,21.57-24.47,9.41,0,22.81,5.52,40.97,16.86,15.49,9.59,28.59,20.36,38.94,32,10.28,11.57,19.22,23.58,26.58,35.72,13.97,23.54,22.74,43.16,26.07,58.34,3.4,15.49,3.25,27.87-.43,36.79-3.78,9.15-10.53,15.6-20.04,19.17-.7.26-1.4.51-2.11.75ZM862.16,380.67c-3.15,0-12.73,0-15.63,19.32-1.43,10.34-2.15,20.88-2.15,31.28s.37,24.38,1.09,40.89c.71,22.54,3.95,40.76,9.61,54.21,5.59,13.3,12.91,23.47,21.76,30.23,8.87,6.79,19.1,11.19,30.4,13.1,11.61,1.97,24.05,2.97,36.97,2.97,10.16,0,19.56-1.59,27.94-4.73,8.01-3,13.44-8.19,16.6-15.84,3.21-7.77,3.25-18.95.12-33.22-3.2-14.56-11.73-33.58-25.36-56.54-7.16-11.8-15.88-23.52-25.92-34.82-9.96-11.21-22.62-21.6-37.63-30.89-16.95-10.59-29.66-15.96-37.8-15.96Z"/>
  </g>
  <g>
    <path class="cls-1" d="M1294.82,194.44c-30.63,1.09-54.07,4.38-70.29,9.85-16.23,5.47-27.9,13.59-35.01,24.34-7.11,10.76-10.85,24.53-11.21,41.3-.37,16.78.18,37.38,1.64,61.81.73,12.4,4.56,21.43,11.49,27.08,6.92,5.66,15.13,8.48,24.61,8.48,5.83,0,11.85-1.09,18.05-3.28,6.2-2.19,12.12-5.38,17.78-9.57,5.65-4.19,10.67-9.3,15.04-15.32,4.38-6.02,7.66-12.85,9.85-20.51,6.2-21.14,10.75-39.56,13.67-55.24,2.91-15.67,5.83-28.62,8.75-38.84,2.91-10.2,6.65-17.78,11.21-22.7,4.56-4.92,11.39-7.38,20.51-7.38h94.08c-19.33.37-34.1,3.47-44.31,9.3-10.21,5.84-18.6,14.14-25.16,24.89-6.56,10.76-12.58,23.71-18.05,38.84-5.47,15.14-12.95,32-22.43,50.6-3.28,6.56-7.38,12.31-12.31,17.23s-9.85,9.02-14.77,12.31c-4.92,3.28-9.57,5.93-13.95,7.93-4.38,2.01-7.85,3.74-10.39,5.2-1.83,1.09-3.83,2.38-6.02,3.83-2.19,1.46-3.83,3.01-4.92,4.65-1.09,1.64-1.28,3.38-.55,5.2.73,1.83,3.09,3.65,7.11,5.47,24.43,9.85,43.76,21.61,57.98,35.28,14.22,13.67,25.43,27.9,33.64,42.66s14.67,29.26,19.42,43.48c4.73,14.22,9.93,26.99,15.59,38.29,5.65,11.31,12.94,20.43,21.88,27.35,8.93,6.93,21.79,10.39,38.56,10.39h-364.83c14.58-.36,25.61-2.82,33.09-7.38,7.47-4.56,12.94-11.57,16.41-21.06,3.46-9.48,5.74-21.69,6.84-36.65,1.09-14.95,2.37-32.82,3.83-53.6,1.09-14.22,2-29.08,2.73-44.58.73-15.49,1.09-30.9,1.09-46.22s-.37-30.26-1.09-44.85c-.74-14.58-2.01-28.44-3.83-41.57-1.46-12.03-2.83-23.33-4.1-33.91-1.28-10.57-3.92-19.78-7.93-27.62-4.02-7.84-10.03-14.03-18.05-18.6-8.03-4.56-19.51-6.84-34.46-6.84h218.79ZM1281.69,575.68c10.57,0,20.24-1.64,28.99-4.92,8.75-3.28,14.85-9.11,18.32-17.5,3.46-8.38,3.56-20.05.27-35.01-3.28-14.95-11.85-34.09-25.71-57.43-7.3-12.03-16.05-23.79-26.25-35.28-10.21-11.49-22.97-21.96-38.29-31.45-17.5-10.94-30.63-16.41-39.38-16.41-10.21,0-16.41,7.3-18.6,21.88-1.46,10.58-2.19,21.15-2.19,31.72s.36,24.25,1.09,41.02c.73,22.97,4.01,41.39,9.85,55.24,5.83,13.86,13.4,24.34,22.7,31.45,9.3,7.11,19.87,11.67,31.72,13.67,11.85,2.01,24.34,3.01,37.47,3.01Z"/>
    <path class="cls-1" d="M1446.33,580.32h-364.83l-.07-6c13.98-.34,24.62-2.68,31.6-6.95,6.84-4.17,11.94-10.74,15.15-19.53,3.35-9.18,5.6-21.24,6.66-35.84,1.02-13.98,2.28-31.51,3.83-53.59,1.07-13.96,1.99-28.93,2.73-44.51.72-15.44,1.09-30.94,1.09-46.08s-.37-30.17-1.09-44.7c-.73-14.46-2.01-28.36-3.8-41.31-1.47-12.08-2.84-23.38-4.11-33.97-1.23-10.17-3.8-19.13-7.62-26.62-3.72-7.27-9.4-13.11-16.86-17.35-7.53-4.28-18.63-6.44-32.98-6.44v-6h218.79l.11,6c-30.21,1.08-53.57,4.34-69.44,9.69-15.5,5.22-26.76,13.01-33.46,23.15-6.77,10.24-10.37,23.6-10.72,39.71-.36,16.62.19,37.33,1.64,61.57.67,11.47,4.17,19.86,10.39,24.93,6.43,5.25,13.86,7.8,22.72,7.8,5.46,0,11.2-1.05,17.05-3.11,5.88-2.08,11.6-5.16,16.99-9.15,5.38-3.99,10.22-8.92,14.4-14.67,4.15-5.7,7.31-12.29,9.39-19.57,6.14-20.94,10.71-39.43,13.61-54.97,2.92-15.72,5.89-28.88,8.82-39.11,3.04-10.63,7.04-18.67,11.9-23.91,5.12-5.54,12.76-8.34,22.71-8.34h94.08l.06,6c-18.73.36-33.15,3.35-42.87,8.9-9.71,5.55-17.82,13.58-24.09,23.85-6.43,10.53-12.41,23.42-17.79,38.29-5.48,15.15-13.07,32.29-22.57,50.94-3.4,6.8-7.73,12.86-12.86,17.99-5.04,5.04-10.16,9.3-15.23,12.68-5.06,3.37-9.89,6.12-14.36,8.16-4.27,1.96-7.69,3.67-10.15,5.07-1.6.96-3.53,2.18-5.84,3.72-1.84,1.23-3.22,2.52-4.09,3.81-.55.82-.62,1.52-.26,2.41.11.28.88,1.73,5.51,3.83,24.65,9.94,44.46,22.01,58.88,35.88,14.37,13.82,25.87,28.41,34.18,43.37,8.25,14.85,14.86,29.65,19.64,43.99,4.67,14.04,9.86,26.79,15.43,37.89,5.42,10.86,12.5,19.71,21.03,26.32,8.35,6.48,20.7,9.76,36.72,9.76v6ZM1309.62,574.32h104.6c-3.05-1.42-5.82-3.1-8.3-5.02-9.25-7.16-16.89-16.71-22.72-28.38-5.69-11.36-10.99-24.37-15.75-38.68-4.67-13.99-11.12-28.45-19.19-42.97-8.02-14.44-19.16-28.56-33.1-41.96-13.87-13.34-33.06-25-57.02-34.66l-.12-.05c-4.86-2.2-7.61-4.46-8.66-7.09-1.1-2.73-.81-5.49.84-7.97,1.31-1.96,3.24-3.8,5.75-5.48,2.4-1.59,4.41-2.87,6.14-3.91,2.67-1.52,6.25-3.31,10.68-5.35,4.19-1.92,8.74-4.5,13.53-7.7,4.74-3.16,9.55-7.17,14.31-11.93,4.67-4.67,8.62-10.21,11.74-16.45,9.4-18.44,16.9-35.35,22.29-50.27,5.52-15.25,11.68-28.5,18.31-39.38,6.8-11.15,15.63-19.87,26.23-25.93,2.41-1.38,5.06-2.61,7.96-3.69h-56.25c-8.21,0-14.37,2.16-18.31,6.42-4.21,4.55-7.76,11.77-10.53,21.49-2.88,10.05-5.8,23.02-8.69,38.56-2.93,15.74-7.56,34.43-13.74,55.54-2.27,7.94-5.74,15.16-10.3,21.43-4.54,6.24-9.82,11.61-15.68,15.96-5.87,4.35-12.11,7.71-18.56,9.99-6.5,2.29-12.91,3.45-19.05,3.45-10.16,0-19.08-3.08-26.51-9.16-7.57-6.17-11.81-16.01-12.58-29.22-1.46-24.39-2.01-45.27-1.65-62.05.37-17.26,4.31-31.69,11.71-42.89,7.46-11.28,19.76-19.87,36.55-25.53,4.43-1.49,9.4-2.83,14.9-4h-128.86c.81.39,1.6.8,2.35,1.23,8.5,4.84,14.97,11.51,19.24,19.84,4.15,8.12,6.92,17.75,8.24,28.63,1.27,10.58,2.64,21.88,4.1,33.91,1.81,13.07,3.11,27.14,3.85,41.78.73,14.63,1.1,29.78,1.1,45s-.37,30.83-1.1,46.36c-.74,15.64-1.66,30.67-2.74,44.67-1.55,22.07-2.8,39.6-3.83,53.59-1.11,15.15-3.47,27.75-7.01,37.46-3.69,10.09-9.63,17.69-17.67,22.59-1.06.65-2.19,1.25-3.38,1.82h124.73c-9.83-2.49-18.83-6.83-26.82-12.94-9.69-7.41-17.64-18.4-23.64-32.67-5.95-14.13-9.34-33.07-10.08-56.31-.73-16.57-1.1-30.41-1.1-41.12s.75-21.49,2.22-32.13c1.68-11.18,6.78-24.47,21.57-24.47,9.41,0,22.81,5.52,40.97,16.86,15.49,9.59,28.59,20.36,38.94,32,10.28,11.57,19.22,23.58,26.58,35.72,13.97,23.54,22.74,43.16,26.07,58.34,3.4,15.49,3.25,27.87-.43,36.79-3.78,9.15-10.53,15.6-20.04,19.17-.7.26-1.4.51-2.11.75ZM1199.64,380.67c-3.15,0-12.73,0-15.63,19.32-1.43,10.34-2.15,20.88-2.15,31.28s.37,24.38,1.09,40.89c.71,22.54,3.95,40.76,9.61,54.21,5.59,13.3,12.91,23.47,21.76,30.23,8.87,6.79,19.1,11.19,30.4,13.1,11.61,1.97,24.05,2.97,36.97,2.97,10.16,0,19.56-1.59,27.94-4.73,8.01-3,13.44-8.19,16.6-15.84,3.21-7.77,3.25-18.95.12-33.22-3.2-14.56-11.73-33.58-25.36-56.54-7.16-11.8-15.88-23.52-25.92-34.82-9.96-11.21-22.62-21.6-37.63-30.89-16.95-10.59-29.66-15.96-37.8-15.96Z"/>
  </g>
  <g>
    <path class="cls-1" d="M1443.6,577.32c16.41-18.6,27.53-41.75,33.37-69.47,5.83-27.71,8.75-58.71,8.75-92.99,0-9.48-.19-19.32-.55-29.54-.74-17.14-2.65-36.1-5.74-56.89-3.1-20.79-7.2-40.66-12.31-59.62-5.11-18.96-11.31-35.37-18.6-49.23-7.3-13.85-15.32-22.24-24.07-25.16h265.28l44.31,174.49c-9.49-31.36-20.33-57.24-32.55-77.67-12.22-20.42-24.89-36.65-38.01-48.68-13.13-12.03-26.17-20.69-39.11-25.98-12.95-5.28-24.89-8.48-35.83-9.57-4.74-.36-9.49-.55-14.22-.55-6.56,0-13.95.64-22.15,1.91-8.21,1.28-16.05,4.1-23.52,8.48-7.48,4.38-13.32,10.12-17.5,17.23-4.2,7.11-6.29,15.59-6.29,25.43,0,18.96,3.74,35.55,11.21,49.77,7.47,14.22,16.77,26.08,27.9,35.55,11.12,9.49,23.33,16.6,36.65,21.33,13.31,4.74,25.98,7.11,38.01,7.11,8.75,0,15.77-1.82,21.06-5.47,5.28-3.64,9.3-8.29,12.03-13.95,2.73-5.65,4.19-10.67,4.38-15.04.18-4.38.27-7.47.27-9.3,0-5.47-.37-10.57-1.09-15.32l30.63,150.97c-5.84-8.02-13.13-17.04-21.88-27.08-8.75-10.03-18.24-19.42-28.44-28.17-10.21-8.75-20.97-16.14-32.27-22.15-11.31-6.02-22.43-9.02-33.37-9.02-15.32,0-27.17,5.66-35.55,16.96-8.39,11.31-13.5,24.8-15.32,40.48-.74,6.56-1.09,12.95-1.09,19.14,0,9.49,1.09,20.24,3.28,32.27,2.19,12.03,7.02,23.98,14.49,35.83,7.47,11.85,17.14,21.52,28.99,28.99,11.85,7.48,26.16,11.58,42.94,12.31,3.28.37,6.56.55,9.85.55,21.88,0,40.56-4.56,56.07-13.67,15.5-9.11,28.53-22.43,39.11-39.93,10.57-17.5,19.14-38.1,25.71-61.81,6.56-23.7,13.13-49.23,19.69-76.58l-37.74,204.02h-276.77Z"/>
    <path class="cls-1" d="M1722.87,580.32h-285.91l4.4-4.98c15.98-18.12,26.98-41.03,32.68-68.1,5.76-27.4,8.69-58.48,8.69-92.37,0-9.22-.18-19.12-.54-29.43-.73-16.94-2.65-35.97-5.71-56.55-3.07-20.56-7.18-40.51-12.24-59.28-5.03-18.66-11.21-35.02-18.35-48.61-6.89-13.08-14.42-21.06-22.36-23.71l-17.5-5.85h286.07l.58,2.26,44.31,174.49-5.78,1.61c-9.37-30.98-20.22-56.89-32.25-77-12.02-20.09-24.63-36.24-37.47-48.01-12.79-11.73-25.65-20.28-38.22-25.42-12.64-5.16-24.41-8.31-34.99-9.36-4.64-.35-9.35-.53-13.92-.53-6.36,0-13.66.63-21.69,1.88-7.81,1.22-15.37,3.95-22.46,8.1-7,4.1-12.53,9.53-16.43,16.16-3.9,6.61-5.88,14.65-5.88,23.91,0,18.39,3.66,34.66,10.87,48.38,7.26,13.82,16.41,25.48,27.19,34.67,10.79,9.21,22.8,16.2,35.71,20.79,12.91,4.6,25.37,6.94,37.01,6.94,8.09,0,14.6-1.66,19.36-4.94,4.83-3.33,8.55-7.63,11.04-12.78,2.54-5.24,3.91-9.91,4.08-13.87.18-4.46.27-7.46.27-9.17,0-5.27-.36-10.27-1.06-14.86l5.91-1.05,33.37,164.46-8.1-11.13c-5.77-7.93-13.08-16.97-21.71-26.87-8.61-9.86-18.08-19.24-28.13-27.86-10-8.57-20.67-15.89-31.73-21.78-10.82-5.75-21.57-8.67-31.96-8.67-14.44,0-25.28,5.15-33.14,15.74-8.03,10.82-12.99,23.95-14.75,39.03-.71,6.36-1.07,12.68-1.07,18.8,0,9.26,1.09,19.94,3.23,31.73,2.11,11.61,6.85,23.31,14.08,34.76,7.2,11.42,16.63,20.86,28.05,28.05,11.34,7.16,25.3,11.15,41.47,11.85l.2.02c3.13.35,6.33.53,9.51.53,21.23,0,39.58-4.46,54.54-13.26,14.98-8.81,27.78-21.89,38.06-38.9,10.39-17.2,18.93-37.74,25.38-61.06,6.52-23.53,13.13-49.26,19.67-76.48l5.87,1.25-38.2,206.48ZM1450.04,574.32h267.84l21.85-118.09c-6.39,21.57-14.6,40.72-24.44,57-10.8,17.87-24.31,31.65-40.16,40.96-15.89,9.35-35.27,14.09-57.59,14.09-3.37,0-6.76-.19-10.08-.55-17.19-.76-32.09-5.05-44.31-12.76-12.18-7.68-22.25-17.75-29.93-29.93-7.64-12.11-12.66-24.52-14.91-36.89-2.21-12.15-3.33-23.19-3.33-32.81,0-6.34.37-12.89,1.11-19.48,1.88-16.15,7.22-30.25,15.89-41.93,8.95-12.06,21.72-18.17,37.96-18.17,11.38,0,23.08,3.15,34.77,9.38,11.45,6.09,22.49,13.67,32.82,22.52,10.28,8.81,19.95,18.39,28.75,28.47,5.18,5.93,9.88,11.57,14.08,16.85l-22.03-108.59c-.76,3.35-2.07,6.96-3.92,10.78-2.95,6.1-7.33,11.18-13.03,15.11-5.77,3.98-13.43,6-22.76,6-12.33,0-25.46-2.45-39.02-7.28-13.59-4.83-26.24-12.2-37.59-21.88-11.36-9.68-20.99-21.94-28.6-36.44-7.67-14.58-11.56-31.8-11.56-51.17,0-10.35,2.26-19.42,6.71-26.96,4.43-7.52,10.68-13.67,18.57-18.29,7.74-4.54,16.01-7.52,24.57-8.85,8.34-1.29,15.95-1.95,22.62-1.95,4.72,0,9.58.19,14.45.56,11.23,1.12,23.56,4.41,36.73,9.79,13.23,5.41,26.69,14.34,40,26.55,13.26,12.16,26.24,28.76,38.56,49.35,4.58,7.65,8.98,16.12,13.2,25.35l-29.87-117.62h-251.87c5.58,4.67,10.82,11.61,15.64,20.76,7.35,13.99,13.69,30.76,18.84,49.85,5.11,19,9.27,39.17,12.38,59.96,3.09,20.79,5.04,40.03,5.77,57.2.37,10.4.55,20.37.55,29.67,0,34.3-2.97,65.8-8.82,93.6-5.41,25.68-15.45,47.8-29.87,65.85Z"/>
  </g>
  <path class="cls-1" d="M2075.32,154.78c16.96,2.73,32.72,6.29,47.31,10.67,14.58,4.38,26.07,9.12,34.46,14.22l-49.23,156.98c0-13.85-5.47-24.15-16.41-30.9-10.94-6.74-22.79-10.12-35.55-10.12-5.84,0-11.31.55-16.41,1.64-5.11,1.09-9.67,2.65-13.67,4.65-4.02,2.01-7.38,4.65-10.12,7.93-2.73,3.28-4.84,7.11-6.29,11.49-1.46,4.38-2.19,9.3-2.19,14.77,0,.37.18.55.55.55h100.1l-39.38,126.9h-61.26v113.77h-190.9v-113.77h-42.12c4.73-14.22,9.48-28.35,14.22-42.39,4.73-14.03,9.38-28.17,13.95-42.39,4.56-14.22,9.21-28.25,13.95-42.12v-5.47c0-36.1,8.56-67.73,25.71-94.9,17.14-27.16,41.38-48.22,72.75-63.18,31.36-14.95,68.37-22.43,111.04-22.43,16.04,0,32.55,1.37,49.5,4.1Z"/>
  <path class="cls-1" d="M2364.95,453.7c19.32,0,34.27-3.46,44.85-10.39,10.57-6.92,16.04-16.41,16.41-28.44l169.02,55.25c-6.56,22.97-20.51,43.85-41.84,62.63-21.33,18.79-48.23,33.64-80.68,44.58-32.46,10.94-68.74,16.41-108.85,16.41-34.28,0-66.28-3.83-96-11.49-29.72-7.66-55.79-19.23-78.22-34.73-22.43-15.5-40.02-34.91-52.78-58.25-12.77-23.33-19.14-50.5-19.14-81.5s6.38-58.16,19.14-81.5c12.76-23.33,30.36-42.75,52.78-58.25,22.43-15.5,48.59-27.08,78.49-34.73,29.9-7.66,61.81-11.49,95.72-11.49s66.46,3.83,95.45,11.49c28.99,7.66,53.96,19.42,74.94,35.28,20.96,15.86,37.2,35.92,48.68,60.17,11.49,24.26,17.23,52.97,17.23,86.15h-298.65v.55c0,5.47,1.45,10.58,4.38,15.32,2.91,4.74,7.02,8.84,12.31,12.31,5.28,3.47,11.85,6.11,19.69,7.93,7.84,1.83,16.86,2.74,27.08,2.74ZM2363.86,360.17c-17.87,0-32.64,3.2-44.31,9.57-11.67,6.38-17.5,15.41-17.5,27.08v1.09h122.52c.36,0,.55-.08.55-.27v-.82c0-5.83-1.55-11.03-4.65-15.59-3.1-4.56-7.38-8.38-12.85-11.49-5.47-3.09-11.95-5.47-19.42-7.11-7.48-1.64-15.59-2.46-24.34-2.46Z"/>
  <path class="cls-1" d="M2609.99,346.5c0-20.79,5.92-38.84,17.78-54.15,11.85-15.32,27.98-28.17,48.41-38.56,20.42-10.39,43.57-18.14,69.47-23.25,25.89-5.1,52.87-7.66,80.95-7.66,34.64,0,66.82,3.1,96.54,9.3,29.72,6.2,56.61,14.41,80.68,24.61v126.9c-10.21-7.66-23.61-14.22-40.2-19.69-16.6-5.47-34.1-9.66-52.51-12.58-18.42-2.91-35.83-4.38-52.24-4.38-10.94,0-20.88.64-29.81,1.91-8.94,1.28-16.05,3.2-21.33,5.74-5.29,2.56-7.93,5.84-7.93,9.85,0,2.19.82,3.83,2.46,4.92,1.64,1.09,4.1,1.83,7.38,2.19,3.28.37,7.47.55,12.58.55h44.31c18.23,0,36.55,1.19,54.97,3.56,18.41,2.38,35.19,7.03,50.32,13.95,15.13,6.93,27.25,16.87,36.37,29.81,9.11,12.95,13.67,30,13.67,51.14,0,22.25-6.11,41.12-18.32,56.61-12.22,15.5-28.81,28.08-49.78,37.74-20.97,9.67-44.49,16.68-70.56,21.06-26.08,4.38-53.15,6.56-81.23,6.56-33.19,0-65.91-3.1-98.18-9.3-32.27-6.2-59.89-15.32-82.87-27.35v-133.46c9.11,9.85,22.15,17.96,39.11,24.34,16.96,6.38,35.37,11.13,55.25,14.22,19.87,3.1,38.56,4.65,56.06,4.65,11.3,0,21.51-.63,30.63-1.91,9.11-1.27,16.32-3.28,21.61-6.02,5.28-2.74,7.93-6.29,7.93-10.67,0-1.82-.55-3.09-1.64-3.83-1.09-.73-2.83-1.27-5.2-1.64-2.38-.36-5.56-.55-9.57-.55h-32.82c-12.77,0-26.9-.45-42.39-1.37-15.5-.91-30.9-2.91-46.22-6.02-15.32-3.09-29.26-8.02-41.84-14.77-12.58-6.74-22.7-16.04-30.36-27.9-7.66-11.85-11.49-26.71-11.49-44.58Z"/>
  <path class="cls-1" d="M3039.37,434.56v-197.46l187.07-44.85v191.99c0,6.93,1.55,12.95,4.65,18.05,3.09,5.11,7.47,9.39,13.13,12.85,5.65,3.47,12.31,6.11,19.96,7.93,7.66,1.83,16.22,2.74,25.71,2.74,10.57,0,21.33-1.64,32.27-4.92,10.94-3.28,20.87-7.84,29.81-13.67,8.93-5.83,15.4-12.58,19.42-20.24v166.28c-15.68,12.4-35.92,21.61-60.71,27.62-24.8,6.02-49.6,9.02-74.39,9.02-37.56,0-71.2-6.11-100.92-18.32-29.72-12.21-53.15-29.9-70.29-53.06-17.14-23.15-25.71-51.14-25.71-83.96ZM3226.98,386.97c4.38-16.77,8.66-33.37,12.85-49.77,4.19-16.41,8.38-32.9,12.58-49.5,4.19-16.59,8.29-33.09,12.31-49.5h106.66v148.78h-144.4Z"/>
  <g>
    <path class="cls-1" d="M3517.51,379.92c.41,3.8,2.45,7.24,4.9,10.08,7.13,8.28,21.23,11.21,30.79,15.83,1.07.52,8.62,4.7,8.99,5.07,2.11,2.12,2.65,9.11,3.92,10.44,1.42,1.5,10.52,5.15,12.65,4.9,5.61-.68,9.33-2.12,15.6-1.75,8.1.47,13.9,3.72,21.09,5.22,8.25,1.73,17.16-.8,25.54-1.07,7.04-.22,12.5.84,19.14,1.25,3.12.19,9.9-.88,12.07.21.82.41,2.73,3.42,3.43,4.34.35.47,2.92,1.56,1.17,2.6-1.37.81-5.02,1.75-6.7,2.75-6.19,4.04-10.72,10.19-16.87,14.25-4.22,2.78-14.31,6.22-16.53,9.79-1.57,2.51-5.11,11.36-5.97,14.36-1.13,3.95-1.09,4.94-2.73,8.65-6.42,14.49-9.91,23.71-13.02,39.59-2.55,12.97-8.53,24.8-9.53,38.32-.84,11.43.03,33.39-4.84,43.48-.24.49-3.27,3.4-3.37,3.62-3.74,8.39-5.72,7.25-12.06,12.8-2.97,2.6-4.53,6.82-8.45,8.27-1.88.69-4.67.94-6.7,1.56-1.1.33-1.71,1.84-4.88,1.69s-2.26-1.18-3.38-2.63c-.6-.77-3.01-3.17-3.02-3.6-.01-1.35,6.6-5.15,8.18-7.16,9.14-11.61,2.02-35.96,2.63-50.27,1.25-29.11,14.91-55.66,27.43-80.96,6.85-13.86,10.74-17.18,20.43-28.49,4.85-5.67,7.33-12.42,13.62-18.81,1.41-1.44,4.2-2.16,4.3-4.83-9.67-1.76-19.38,1.31-29.03,1.22-13.27-.13-25.5-4.65-38.68-2.85-13.25,1.81-22.02,3.52-34.78-2.63-12.79-6.17-22.46-23.59-27.61-36.39-.45-1.13-.09-2.45-.59-3.59-.93-2.13-4.52-4.15-5.97-8.39-5.39-15.73,3.34-35.88,18.12-42.89,11.78-5.59,23.35-2.9,35.08-4.99,1.29-.23,9.75-4.42,10.81-5.34,2.99-2.61,5.73-11.43,7.89-15.41,3.59-6.59,23.2-27.18,29.87-31.76,11.54-7.91,28.38-8.02,41.76-6.07,2.1-.21-3.18-4.43-3.76-4.74-9.81-5.22-35.75-.99-45.87,3.54-19.96,8.94-19.99,33.96-38.87,44.86-15.99,9.23-35.7,11.38-51.47,19.09-5,2.45-8.11,5.8-11.42,10.16l-6.61-4.91c-.56-.68-.84-1.48-.66-2.37.06-.28,2.87-4.41,3.12-4.69,8.89-9.85,43.32-15.62,57.35-23.39,1.21-.67,8.37-4.97,8.7-5.37.36-.45-.18-1.75.17-2.2.18-.23,3.06-1.58,4.46-3.35,9.04-11.47,10.5-25.52,24.84-33.44,12.24-6.76,35.11-10.51,47.64-5.22,9.89,4.74,3.64-1.24,1.62-5.93-3.99-9.27-3.58-17.26-5.75-26.55-2.77-11.9-13.7-19.88-17.68-31.36-4.84-13.95-2.57-30.68-3.16-45.29-.44-10.95-1.96-24.65-4.35-35.12-1-4.4-5.29-13.89-4.69-17.51.41-2.48,10.05-4.42,12.6-3.87-.48-3.39-4.16-4.76-2.98-8.97l2.83,1.35c0,1.59,3.65,3.17,5.3,3.96,2.33,1.12,14.59,4.91,15.12,5.51.41.47-.15,3.71.08,4.72,1.25-.03.09-2.62,1.52-2.98,1.89-.48,7.53,5.06,8.95,6.57,2.43,2.6,5.78,8.35,8.46,10.08,1.54,1,4.05,1.35,5.39,2.09.82.46,2.16,2.62,3.75,3.12,2.29.71,4.78-.11,7.07.41-.05,1.43,5.88,4.22,4.92,5.23-2.09,2.19-12.43-2.54-5.09,6,3.28,3.82,15,11.56,19.78,12.51.87.17,1.78.02,2.65.03-1.28-.54-1.7-6.65,0-4.78.1.11.08,1.79.58,2.56,2.54,3.91,8.2,4.05,12.06,5.9,6.72,3.21,19.01,11.95,25.49,16.48,3.32,2.32,16.47,11.9,17.73,15.17s.46,5.86.99,8.6c.57,2.96,2.48,10.41,3.58,13.06.25.6,1.14.22,1.19.73-2.24.29-4.32-3-6.31-4.49-16.01-12.01-32.99-16.79-49.86-26.67-14.84-8.69-30.01-26.69-39.91-40.53-1.19-1.67-8.66-12.23-8.91-12.98-.44-1.31.42-1.92-.36-3.73-1.12-2.58-6.32-7.23-8.73-8.78-.83-.53-2.15-.5-2.9-1.17-.96-.85-.77-2.35-.86-2.44-.11-.12-1.61.72-3.12.5-1.77-.26-10.04-4.04-10.62-3.48.36,3.93,2.62,8.05,3.54,11.71,6.1,24.22,4.45,46.16,6,70.55.85,13.3,3.83,16.01,10.55,26.22,10.48,15.93,8,19.07,12.35,36.4,2.37,9.44,7.51,15.57,12.79,22.5.37.48,1.13.6,1.26.81,1.03,1.67-.75,5.81-2.07,7.07-1.77,1.67-10.99,4.46-14.14,6.02-16.51,8.18-32.88,23.79-44.85,37.4-2.72,3.09-8.49,8.47-10.37,11.74-.37.64.06,1.76-.26,2.15-.16.19-2.31,1.84-3.52,3.19-6.55,7.37-14.76,11.94-23.02,16.58-9,5.07-18.34,9.44-27.6,13.96-2.14,2.64,1.13,2.89,1.5,3.52,1.64,2.77-4.91,2-6.69,3.43-.91.73.28,3.1-1.26,2.45-.59-.25-5.2-4.19-6.08-4.99-1.5-1.37-3.09-4.11-5.04-5.35-.66-.42-.88-.59-1.75-.42.22,2.79-.3,5.94,0,8.67ZM3633.9,289.55c-10.64-4.71-19.43,1.2-26.11,8.99-1.82,2.12-4.27,6.47.25,3.84,5.61-3.26,11.52-6.19,17.73-8.58,2.93-1.13,6.52-2.43,9.56-2.71.07-.36-1.33-1.5-1.43-1.54ZM3519.07,404.99c-2.06-1.01-5.18-3.26-6.65-3.84-1.29-.51-.96,1.19-.76,1.95,1.3,4.99,7.43,17.57,10.65,21.48s9.92,6.86,14.78,7.52c1.78.24,15.1.6,15.64.04.16-.17-.07-1.04.25-1.5.29-.42,1.25.16,1.01-.78-2.03-.08-6.91-3.65-7.8-5.21-1.61-2.81.17-6.04-3.94-9.05-4.79-3.5-17.2-7.67-23.19-10.61ZM3605.43,499.24c-.86-1.04-3.15,4.08-3.43,4.64-12.83,26.4-24.66,50.98-24.73,81.19l1.85,23.62c3.01-.25,1.98-4.35,2.41-6.16,3.61-15.19,2.66-31.29,5.82-46.91,3.44-17.01,11.62-31.39,16.48-47.51.34-1.14,2.01-8.36,1.6-8.86Z"/>
    <path class="cls-1" d="M3969.06,252.82c1.4-2.25,6.92-11.11,8.54-12.39,2.23-1.76,7.05-1.68,8.61-3.35,4.09-4.37,5.78-19.3,5.6-25.26-.23-7.52-3.21-13.88-3.01-21.21.91-.15.71,1.12.88,1.8.87,3.4,2.3,8.39,2.63,11.73.35,3.51.74,9.63.72,13.08-.02,2.88-1.63,6.35-.64,9.27,1,.82,8.27-11.33,8.79-12.43,4.69-9.78,14.88-36.48,15.71-46.49,1.11-13.26-2.87-11.69-11.3-17.98-14.48-10.8-27.63-43.28-33.82-60.69-3.42-9.64-6.91-21.59-4.96-31.82.11-.55.24-1.79,1.04-1.64,1.11,4.68-.34,9.12.02,14.04.66,9.2,8.46,26.48,12.44,35.41,5.32,11.95,12.62,28.29,22.7,36.65,6.65,5.51,13.18,6.78,15.03,16.52.24,1.28.7,4.7.71,5.93.07,14.82-11.6,47.88-19.29,60.9-.91,1.55-7.59,9.49-6.47,10.57,4.55.68,6.72-4.05,9.83-6.34,22.4-16.48,60.81-18.27,79.27,5.01,5.5,6.93,6.93,15.26,10.24,22.97,1.79,4.16,2.56,10.66,4.78,15.56,3.11,6.88,22.25,30.48,28.46,34.46,1.48.95,7.03,2.87,7.29,3.17.87,1.01-.87,5.33-.26,6.5.92,1.79,7.5,3.39,9.59,9s-.95,6.08-.89,9.19c0,.31,4.37,3.48,4.63,4.09,1.14,2.72-1.15,3.24-1.88,4.69-6.16,12.32-23.16,29.49-36.7,33.27-6.07,1.69-14.94,1.49-20.4,4.12-7.25,3.48-12.24,9.81-18.32,14.6-6.02,4.73-16.81,7.81-24.5,7.81-4.78,0-8.86-1.94-13.46-2.43.63,5.08-.06,14.87,3.2,18.93,1.97,2.46,9.06,5.95,11.57,8.77,3.22,3.62,5.25,10.63,8.06,14.37,2.96,3.94,7.71,7.98,10.84,11.79,20.81,25.35,30.6,47.96,32.72,81.62.31,4.84-.87,13.09.02,17.22.08.38,2.43,1.4,2.44,3.72,0,2.07-1.33,1.74-2.09,2.75-2.26,2.97-4.16,18.69-5.1,23.61-.4,2.07.95,5.44-2.08,3.18-.78-.58-5.02-4.31-5.24-4.96-.91-2.68,1.03-10.66.67-11.09-.05-.06-1.41-.63-1.49-.64-.12-.01-.23.98-1.11,1.29-9.71,3.49-6.25.53-6.3-5.77-.26-34.46-41.2-60.83-50.23-92.77-.32-1.12-1.02-7.13-1.26-7.42-1.13-.05-1.23-.28-1.21.91.02,2,.73,5.73,1.25,7.73,2.9,11.13,7.96,21.41,14.67,30.79,11.5,16.08,37.19,42.46,34.94,63.16-.98,9.01-12.07-4.4-14.66-6.29-2.74-2.01-13.63-7.37-16.8-7.73-2.83-.32-5.6,1.3-6.96,1.02-1.17-.23-7.89-4.36-9.03-5.36-.61-.53-1.26-.57-1-1.69,2.19-.3,4.32-1.69,6.43-2.26,1.56-.42,4.66.56,3.01-2.41-.45-.82-12.82-6.37-14.73-7.09-9-3.41-18.74-5.27-27.27-7.42-4.87-1.22-9.97-3.75-15.28-3.56l5.75-1.72c9.27,0,18.75-1.49,28.03-.66,15.09,1.35,26.51,13.2,37.1,22.73,1.32.58,7.69,5.56,8.66,4.77.64-.53-2-2.5-1.86-3.21-20.59-18.56-44.05-41-45.98-71.26-.96-14.99.62-30.96.02-46.07-.49-12.34-1.54-26.57-11.85-34.93-1.5-1.22-5.19-1.93-4.96-4.51.12-1.29.87-1.59,2.01-1.42.39.06,6.23,4.04,6.46,4.35.78,1.09.44,2.58,1.02,3.77,1.93,4.01,5.51,7.72,7.01,12.15,1,1.03,2.95-.7,3.83,1.67.82,2.22,2.21,7.21,2.79,9.64.94,3.91,1.46,12.66,2.75,15.79.51,1.23,1.89.64,2.31,1.41,2.72,4.98,5.06,16.31,7.36,22.41,1.97,5.22,4.65,12.54,8.2,16.78.55.66,2.77,3.07,3.56,2.26.56-.58-3.1-13.54-3.62-15.7-.2-.83-.8-2.49-1.22-4.26-2.17-9.12-3.86-21.43-11.75-27.89-1.04-.85-4.16-1.83-4.35-2.2-1.36-2.62-2.83-12.33-3.75-15.86-.4-1.56-2.16-3.18-1.62-5.26.52-.53,6.3-.4,7.46-.62,3.76-.69,1.37-5.15.97-7.52-.22-1.29.21-2.94-.14-4.05-.83-2.62-10.85.79-13.24.12-.94-.26-6.19-7.26-5.23-8.27,4.84-2.17,6.28,2.34,9.55,3.31,5.58,1.66,9-1.87,12.87-5.11,9.44-1.46,19.31-1.24,28.69-3.02,2.15-.41,7.97-1.88,9.72-2.84,2.04-1.12,3.14-2.86,4.08-4.9.4-.86.05-1.95.48-2.81,1-1.97,8.06-11.93,9.57-13.14,1.33-1.07,5.97-2.97,8.04-4.23,4.74-2.89,9.8-6.12,14.94-8.94,2.33-1.28,2.32-.84,4.34-1.67,5.99-2.47,15.75-7.27,15.53-14.66-4.63.34-9.02,5.28-13.92,4.16-.42-.1-.5-.92-.93-1.1-1.78-.73-7.45-2.86-8.64-3.66-.63-.42-.49-1.49-1.38-2.34-.75-.7-4.99-2.6-6.89-3.86-19.74-13.17-26.93-29.24-39.83-48.68-13.74-20.72-49.65-42.7-73.91-28.1-2.78,1.67-4.62,4.44-7.61,6.42-1.18,1.91-3.02,4.56-4.2,6.86-1.01,1.97-1.31,4.45-2.67,6.29l-3.87-5.02c.09-.45,5.26-3.92,6.19-4.63,1.7-1.3,2.8-2.33,4.56-3.5ZM4074.53,233.46c-19.07-13.6-38.11-13.45-59.52-4.36-2.51,1.07-5.68,2.13-7.08,4.58,5,.24,10.21-.33,15.19.07,17.6,1.41,42.73,9.46,54.19,23.56,8.87,10.92,9.39,26.78,16.36,38.38,3.38,5.63,14.19,8.45,20.25,9.95,1.35.34,2.66,1.7,4.66,1.02.27-.22-1.26-2.5-1.42-2.73-5.36-7.17-12.56-12.93-16.96-21.06-7.8-14.42-8.62-35.7-21.08-46.5-1.54-1.33-3.19-1.91-4.58-2.9ZM4035.87,247.03c-.94-.4-1.85-.18-2.82-.19-1.35,1.17,7.64,5.39,8.52,6,1.52,1.05,3.2,3.13,5.19,3.91l15.6,13.41c.02-.98.17-1.86-.19-2.82-3.58-9.63-17.87-16.72-26.29-20.31ZM4127.54,315.62c.33-2.51-4.07-5.37-3.33-1.74.29,1.41,2.08,1.55,3.33,1.74ZM4128.74,346.72c-.5-.5-6.32,1.95-7.41,2.45-6.25,2.84-22.02,10.5-26.03,15.38-.66.8-3.77,5.39-3.04,6.09,3.91.5,6.77-.46,10.28-1.85,6.41-2.53,18.52-12.52,23.56-17.83.72-.76.64-1.99,1-2.33.59-.56,2.21.77,1.64-1.91ZM4050.39,392.78c-5.74.51-12.09.41-17.68,1.78-1.01.25-1.74-.59-1.45,1.21,5.84.11,12.2.06,17.84-1.62,1.04-.31,1.56.21,1.29-1.36ZM4059.74,452.8c-1.18-1.4-3.03-2.94-4.26-4.4-1.32,2.05.46,4.09.76,5.81,3.8,21.28,11.88,48.03,21.77,67.34,1.04,2.04,6.77,11.34,8.28,12.06.79.37,1.53.38,2.38.32-.06-21.82-4.34-44.17-15.66-62.99-3.45-5.73-8.92-12.98-13.27-18.14ZM4089.26,549.47c-.53-2.21.51-5.15.49-7.03-.03-1.86-3.14-1.16-4.08-.45-1.9,1.42,1.74,5.01,2.23,6.73l1.37.75Z"/>
    <path class="cls-1" d="M3774.08,533.93c-.06-4.9-1.66-9.67-1.13-14.59.07-.67.99-4.36,1.18-4.5.48-.33,2.24-.11,2.68.51.58.83-1.13,15.18-.93,18.27,1.88,28.24,19.64,45.56,30.48,68.92.82,1.76,2.39,4.33,1.51,6.14-1.41-1.7-3-4.66-4.46-6.18-.54-.56-1.5-.27-1.69-.5-.29-.36-4.06-6.32-4.88-7.58-3.63-5.58-6.23-12.01-9.9-17.44l.32,23.05c-.11,2.55-1.56,4.47-1.26,7.17.67,5.94,13.49,18.3,17.27,24.02,8.81,13.34,11.62,31.62,12.7,47.71.22,3.29-.52,19.06,1.18,20.66,1.02.96,1-.29,1.25-.84,1.36-3.04,2.21-6.97,3.61-10.02,5.27-11.5,13.01-24.35,19.25-34.74,7.03-11.69,14.51-23.01,22.55-33.94l1.19.29c-2.19,5.9-4.48,11.88-5.39,18.23,1.3.12,2.4-.44,3.52-.96,7.68-3.53,21.16-12.33,26.97-18.48,5.37-5.68,8.83-12.77,13.27-19.03,4.86-6.84,10.45-10.7,15.05-16.92.75-1.01,2.61-1.69,2.77-3.55-2.18-13.44-3.25-23.23,8.95-31.13,2.11-1.37,1.2-.77,3.63-1.72,7.36-2.9,1.26-2.97,1.19-8.09,2.34.16,4.05,1.77,6.57,1.2l-1.19,1.18c2.04-.58,1.73,1.51,3.26,1.81,2.45.49,4.89-.56,7.18-.64,14-.43,28.38,2,41.72,6.18,6.29,1.97,16.13,7.95,22.27,6.96,2.02-.33,3.38-2.11,4.87-2.35,3.3-.54,8.2,4.61,11.56,5.44.14.21.13,1.57.02,1.69-.21.25-5.28,2.14-6.08,2.48-4.78,2.03-6.39,1.95-11.52,2.95-.59.12-1.79.48-1.21,1.19,2.96,2.65,7.05,4.52,10.24,6.81,2.5,1.79,4.56,4.32,7.42,5.95.45.26,1.15-.27,1.18-.21.19.36-.27,1.56.13,2.27.29.51,7.73,6.58,9,7.49,9.47,6.78,20.03,8.53,28.65,14.21.59.39,6.28,5.27,6.46,5.67.27.62.3,1.79-.86,1.46-3.06-.87-9.06-6.78-11.68-3.58,1.82-.74,2.89,2.5,3.01,3.88.18,2.08-1.67-.01-2.74-.26-16.96-3.84-26.66-2.5-41.08-13.79-12.49-9.78-21.71-19.78-38.47-23.29-12.22-2.56-22.92,1.57-33.28-7.81-8.96-8.12,2.3-1.31,6.54-.73,5.08.69,10.5.03,15.93.82,13.39,1.94,28.76,10.86,38.99,19.29,6.06,4.99,8.11,9.25,16.26,12.19,3.99,1.44,20.28,4.91,24.96,4.94.69,0,2.25.4,2.1-.61-12.45-5.14-20.23-16.96-30.9-24.43-10.45-7.32-28.32-14.56-40.84-17.77-7.3-1.88-15.62-2.28-23.51-4-4.23-.92-8.07-3.14-12.4-3.45.87,6.09-5.58,12.53-6.44,17.19-1.19,6.42,1.34,12.26-.77,20.06-.12.46-4.58,7.72-4.92,8.04-13.27,12.59-26.77,31.61-31.95,49.69-1.4,4.89-.62,7.81-1.39,11.77-.81,4.18-9.15,6.37-12.86,6.34-3.23-.02-6.87-.2-7.79-3.61-2.04-7.53,4.27-18.55,5.71-25.74-.18-.2-3.48,1.72-3.95,2.03-7.4,4.87-16,8.83-23.66,13.59-5.3,3.29-6.67,6.35-10.06,10.85-1.73,2.3-4.17,2.59-5.71,4.02-5.74,5.37-12.03,28.79-15.99,37.24-.86,1.84-7.52,13.5-9.09,13.65-2.4.23-1.1-1.04-1.68-1.63-.95-.96-3.7-2.46-4.42-3.4-4.59-5.98-3.82-43.21-4.99-53.32-.23-1.94-2.99-15.85-3.59-16.45-1.1-1.09-1.55,1.56-1.55,2.18-.14,9.43,1.99,20.84,2.18,30.44.04,2.09-.64,4.23-2.58,5.19-4.75,2.34-11.06,3.31-15.94.72-3.77-2-2.07-6.09-2.45-9.52-.26-2.34-1.09-4.82-1.21-7.16-.34-6.46,1.42-29.14-3.15-33.07-.3-.26-1.14-.02-1.45-.31s-.04-1.16-.56-1.66c-2.05-1.99-7.66-5.53-8.97-7.94-4.05-7.47-.88-22.79-1.4-31.8-.33-5.59-1.36-14.86-2.4-20.33-.8-4.2-2.67-.79-3.15-.5-.93.56-5.55,1.98-5.83,2.91-.36,1.19,2.83,3.67,3.52,4.85,5.33,9.13-.64,20.29-2.74,29.37-2.96,12.8-4.4,33.71.31,46.02,2.81,7.34,8.81,11.97,13.29,17.97,7.96,10.64,14.94,22.27,23.34,32.58,1,1.23,8.3,7.69,7.15,8.83-1.48,1.47-6.49-5.94-7.39-6.96-9.11-10.35-16.55-21.64-24.93-32.64-6.08-7.98-14.26-15-18.22-24.39-6.76-16.03-4.27-34.44-.74-50.98,1.6-7.49,4.97-14.71,4.03-22.59-.73-.73-6.95,1.97-8.22,2.24-3.55.78-8.33.73-11.66,1.5-4.53,1.05-15.47,12.04-18.95,15.88-13.91,15.32-15.88,33.39-32.09,47.59-16.09,14.09-40.99,28.62-62.94,22.1-8.54-2.54-25.65-14.29-27.37-23.49-.22-1.19-.04-3.19,1.55-2.13.32.21,4.44,4.84,4.76,5.39,1.03,1.8,1.42,4.04,2.49,5.76.93,1.5,2.39,1.51,2.74,1.88.31.33.07,1.15.56,1.66,4.59,4.65,23.52,5.55,29.7,4.14.2-.05,2.2-.92,3.55-1.32,7.17-2.17,13.54-5.98,19.72-9.63,3.35-1.98,6.78-3.95,10.22-5.78l.41-1.8c-6.75,1.23-13.77,2.6-20.64,2.98-7.97.45-19.63.62-27.5,0-4.01-.32-17.54-2.27-20.78-3.74-7.31-3.31,1.33-7.84,5.8-8.24,7.87-.72,15.55,1.97,23.32,2.44,7.27.44,20.38.25,27.55-.61,6.42-.77,4.3-6.06,5.22-10.93,2.07-11.01,6.23-15.96,16.11-20.85,9.76-4.83,17.4-5.3,25.75-13.69,8.9-8.94,10.69-9.77,21.88-16.09,3.34-1.89,7.17-4.78,10.34-6.27,7.55-3.57,16.28-2.84,19.92-11.78,1.25-3.09,2.3-11.98,3.91-13.91.19-.22,4.82-2.79,5.11-2.79h10.47ZM3776.55,558.97c1.26.79,3.57.15,3.48-1.93-.04-.83-2.37-9.53-2.66-9.96-.58-.84-1.22-.61-2.09-.6-.86,1.69.55,12.03,1.27,12.48ZM3694.54,602.11c-3.86,1.07-8.98,4.24-10.99,7.85-2.05,3.68-2.28,7.66-2.83,11.53-.12.88-1.31,4.38-1.13,4.54,2.25,2.01,7.12-6.85,8.04-8.4,1.15-1.93,7.87-14.52,6.91-15.52Z"/>
    <path class="cls-1" d="M3674.79,304.27c.72.75-4.83,17.07-4.78,19.72-3.27-1.52-8.06-1.54-11.52-.57-.49.14-.36,1.01-.87,1.15-.64.17-1.63-.17-2.1.05-2.28,1.1-3.77,4.19-5.71,5.91-6.88,6.1-16.99,10.97-24.09,17.06-17.15,14.72-21.29,39.07,2.31,49.9,7.28,3.34,23.67,6.78,31.52,6.05,6.64-.62,7.33-2.84,10.31-7.61.39-.62-.03-1.05,1.35-.77-.56,2.25,2.34,6.33,1.1,8.28-.24.38-6.93,3.87-7.96,4.3-26.82,11.22-45.64-12.73-69-20.75-13.08-4.49-27.13-5.65-40.76-7.38-.29-1.16.43-1.15,1.01-1.68,2.46-2.28,9.05-5.68,12.35-7.99,15.8-11.09,32.3-20.66,46.64-33.97,12.7-11.79,24.58-29.92,44.41-34.07,6.6-1.38,7.11-.6,12.47,1.8.96.43,3.21.44,3.32.57Z"/>
    <path class="cls-1" d="M4022.65,270.41c10.3,6.75,19.97,21.83,28.73,31.38,7.86,8.56,17.19,18.1,26.89,23.89,2.55,1.52,4.99,3.22,8,3.7.13,1.62-1.59,2.34-2.81,2.86-14.91,6.39-29.63,8.45-44.14,16.86-2.1,1.22-12.66,8.92-13.79,9s-8.23-4.52-8.66-5.22c-.96-1.56.23-7.9,1.39-8.98.82-.76,11.13-3.99,13.9-5.54,6.12-3.44,12.73-9.44,12.28-17.07-.82-13.94-15.75-12.94-24.67-19.46-3.45-2.52-3.71-6.04-5.55-9.54-6.74-12.82-21.29-19.69-35.11-13.08-.78.37-4.65,3.6-4.95,3.56-1.05-.17-4.72-5.33-5.1-6.32-.99-2.63,3.14.73,3.35.77.39.08,3.37-.45,3.96-.64,1.77-.57,1.89-1.68,2.7-2.2,13.82-8.68,28.4-13.9,43.58-3.95Z"/>
    <path class="cls-1" d="M3657.78,150.23c16.44,20.46,31.25,32.43,55.07,43.9,10.55,5.08,23.46,8.37,31.71,17.63,2.22,2.49,4.38,4.82,1.35,7.21-3.42,2.71-9.8,6.08-13.85,8.75-.35.23-.45.96-.58,1.01-2.5,1.06-2.58-1.26-3.76-2.23-9.46-7.85-17.79-16.51-26.41-25.33-2.59-2.65-5.4-7.35-8.99-9.25-6.88-3.66-17.99-.54-19.88,7.41-2.26,9.51,1.28,26.04,3.73,35.66,2.22,8.71,6.81,19.11,8.05,27.84.26,1.85.13,3.69.14,5.54-.86.11-1.56-.01-2.36-.33-.52-.21-8.67-6.1-9.02-6.53-1.81-2.26-4.51-13.03-5.22-16.31-6.5-30.11-4.99-60.76-13.46-91.2-1.11-3.97-3.92-9.68-4.63-13.31-.13-.67-.09-1.28.61-.61,2.24,2.15,5.22,7.34,7.49,10.16Z"/>
    <path class="cls-1" d="M3684.97,457.37l-3.19,5.78c-3.54,2.35-6.56,4.61-9.33,7.86-10.47,12.26-28.08,42.19-25.7,58.38,1.05,7.15,8.75,12.34,15.76,11.68,23.02-11.77,49.57-15.07,73.41-24.07,6.03-2.28,9.77-3.29,12.71-9.42.71-1.49.13-3.77,1.93-4.69.44-.13,7.97,3.3,8.4,3.7,2.88,2.62-3.63,9.4-5.68,11.2-10.89,9.56-29.62,12.79-43.53,16.11-4.71,1.12-9.52,1.64-14.73,3.21-28.75,8.64-47.17,25.51-68.47,45.14-.66.61-.38,1.08-1.97.74,1.47-4.92,3.34-9.81,4.64-14.79,7.23-27.6,9.92-58.11,25.24-83.15.81-1.33,3.48-6.9,3.74-7.22.19-.23,1.15.07,1.69-.5,7.25-7.59,10.44-12.06,19.87-17.55,1.33-.77,2.82-3.02,5.21-2.38Z"/>
    <path class="cls-1" d="M3638.89,126.65c1.83,5.25,4.45,10.36,6.19,15.65,10.3,31.28,7.62,65.93,15.29,97.75,1.04,4.3,2.9,8.41,3.66,12.78l-5.79-5.01c-5.76-8.53-11.47-17.59-14.36-27.77-1.51-5.33-1.71-11.9-3.45-16.91-3.36-9.7-5.67-21.27-6.89-31.96-.95-8.29-2.03-21.19-1.73-29.33.06-1.52,1.55-2.28,1.73-3.6s-.65-2.73-.66-4.15c-.01-2.83,2.67-7.8,6.01-7.44Z"/>
    <path class="cls-1" d="M4030.06,525.55c-2.55-1.28-4.24-2.74-6.84-4.23-22.22-12.71-66.82-1.14-93.35-2.93-2.09-.14-13.79-1.95-14.68-2.81-1.14-1.1-3.92-7.27-3.57-8.76.1-.4,5.92-4.06,6.87-4.65.78-.48,1.76-.35,2.24-.62,1.61-.9,3.71-3.52,6.18-3.46,1.46.03,7.47,2.79,9.69,3.39,14.73,3.97,29.92,4.66,45.83,2.44,5.7-.79,19.8-2.95,23.08-7.55l2.41-4.32c2.19,4.9,4.44,9.98,7.3,14.53,4.27,6.78,10.36,12.52,14.83,18.96,1.47.73,3.47,1.48,3.59,3.59-2.22.04-2.81-2.47-3.59-3.59Z"/>
    <path class="cls-1" d="M3747.17,535.11c-1.86.01-2.59,2.66-3.2,3.36-7.01,7.95-17.57,16.08-27.36,20.21-15.91,6.71-33.62,8.78-50.41,13.59-5.96,1.71-11.77,4.12-17.71,5.91-.26-1.5,0-1.26.73-1.97,8.87-8.62,27-20.53,38.04-25.46,17.99-8.03,34.52-9.73,52.86-14.6,1.99-.53,5.98-3.41,7.04-1.04Z"/>
    <path class="cls-1" d="M3894.89,547.69c.8.91-.53,1.63-.68,1.86-14.84,24.2-42.16,38.74-56.27,63.48l-8.23,16.59c-2.24-6.88-3.98-13.99-6.41-20.8-2.95-8.25-6.95-15.89-9.74-24.05l5.69,5.37c13.68,9.8,22.58,2.34,29.85-9.62,6.67-10.97,20.33-16.21,31.03-22.78l14.76-10.05Z"/>
    <path class="cls-1" d="M4021.45,255.46c25.97,12.23,34.22,38.23,51.71,59.08,1.43,1.7,3.69,3.48,5.19,5.09,3.08,3.31-1.91,1.18-3.6.16-33.91-20.29-55.24-88.8-105.47-52.38l-3.82,3.95c-1.38-3,.89-4.51,2.05-6.64,4.36-7.99,10.74-12.98,19.92-15.34,10.58-2.72,24.24,1.48,34.01,6.08Z"/>
    <path class="cls-1" d="M3784.1,517.93c1.77,1.66,2.62,10.69,3.41,13.63,4.59,17.01,12.51,33.49,19.04,49.13,7.34,17.59,15.19,34.9,17.17,54.03.41,3.93-.05,7.89.6,11.65-2.61-1.52-1.8-5.39-2.56-8.49-1.4-5.69-3.73-12.65-6.17-17.75-.65-1.36-3.16-3.82-3.21-4.07-.2-1.07.25-2.4-.09-3.41-.29-.86-1.49-.82-1.64-1.03-.09-.12.68-1.71.42-3.07-.4-2.14-4.04-9.82-5.15-12.23-9.34-20.36-25.76-37.03-28.19-60.34-.7-6.7.76-13.03,2.35-19.39.17-.16,3.61.96,4.03,1.35Z"/>
    <path class="cls-1" d="M3997.55,397.77c3.34,3.43,4.68,14.34,4.99,19.24,1.16,18.58.37,38.01.81,56.66.11,4.81-2.19-.13-2.78-2.06-3.44-11.16-1.67-23.62-10.8-33.16-2.29-2.4-6.07-3.96-8.76-5.91,1.62-2.11,1.62-4.84,2.46-6.99,2.22-5.72,4.92-11.76,6.69-17.95.56-1.98,1.83-11.33,3.19-11.79,1.26-.43,3.32,1.05,4.21,1.96Z"/>
    <path class="cls-1" d="M3614.73,400.23c8.25,4.12,15.87,9.78,24.26,13.71,1.25.59,7.46,2.44,7.7,2.77.7.96-.91,1.81-2,1.76-3.96-.18-9.68-1.19-13.68-1.93-21.61-4-45.06-18.17-65.54-27.19-.88-.39-1.62.34-1.3-1.35,17.78,1.02,34.61,4.25,50.57,12.23Z"/>
    <path class="cls-1" d="M3683.18,445.42c1.18,1.25-2.99,1.6-3.73,1.94-40.6,19.09-47.74,63.71-55.64,103.45l-2.22,5.84,4.97-44.96c3.25-29.63,24.85-53.8,51.07-65.07,1.32-.57,4.45-2.36,5.55-1.2Z"/>
    <path class="cls-1" d="M3808.17,571.6c-1.59.3-1.04-.34-1.46-1.2-.59-1.21-1.31-2.92-1.81-4.2-5.78-14.69-10.76-29.8-12.87-45.44,2.54-.66,3.96.48,5.85,1.02,1.17.33,3.29-.18,3.68,1.14-1.55,5.41.61,10.74,1.23,16.08.35,3,.21,6.35.69,9.48,1.19,7.87,3.37,15.29,4.7,23.1Z"/>
    <path class="cls-1" d="M3995.97,358.08c2.6-.96,3.35.86,4.06,1.14,4.58,1.82,9.13,3.58,13.31,5.79-1.72,7.29-10.82,9.29-17.38,7.42v-14.35Z"/>
    <path class="cls-1" d="M3557.4,391.79c.16.06.2.76.66.93,5.07,1.84,11.07,3.6,15.82,6.19,1.22.67,1.18.86,1.04,2.24-5.33-2.4-11.38-3.12-16.85-4.97-3.51-1.19-7.41-3.15-10.54-4.53-2.19-.96-4.44-1.88-6.66-2.77l-.63-1.47c.66-.6,15.19,3.71,17.16,4.39Z"/>
    <path class="cls-1" d="M3698.13,571.01c.22,1.43-1.19,1.81-2.17,2.31-10.43,5.39-23.92,7.18-35.51,7.84l37.67-10.16Z"/>
    <path class="cls-1" d="M3890.7,590.75c-.29,2.78-3.46,4.24-2.99,7.18-2.32-1.96-3.26,2.84-4.37,4.03-1.31,1.39-5.92,4.99-7.62,6.39-1.53,1.27-1.49,2.91-2.94,3.93.28-1.26-1.45-.89-1.14-1.98.42-1.47,4.74-5,5.94-6.67.57-.8.5-2.04.58-2.12.12-.13,1.49.84,1.78.61.08-.06.16-1.46.57-1.98.45-.59,1.39-.55,1.72-1.42.25-.64,0-1.82.12-1.99.08-.12,2,.97,2.38.6.18-.18,1.14-3.67,2.38-4.37l3.6-2.2Z"/>
    <path class="cls-1" d="M3663.09,259.14c3.01,3.09,5.95,5.21,9.07,8.28.99.97,2.38,1.73,2.04,3.33-1.03-.02-2.17.18-3.17-.12-2.36-.71-11.43-12.25-12.66-14.86-.37-.78-.94-1.98.57-1.77,1.35,1.62,2.69,3.63,4.15,5.12Z"/>
    <g>
      <path class="cls-1" d="M3748.7,323.66c11.27,11.86,29.5,16.89,45.4,17.71,15.74.8,28.67-2.71,36.82-17.05,2.93-5.16.81-6.65,8.73-7.42,7.34-.72,14.27,3.57,20.12,7.72.55.39,3.61,2.78,3.73,2.98.72,1.19.14,4.33.46,6.12,3.46,19.83,19.86,29.2,38.09,33.68,11.18,2.75,31.78,3.62,43.09-1.23,9.5-4.07,13.93-13.91,16.81-22.97.77-.55,5.41,1.33,6.62,1.81.49.19.5.86.98,1.06,5.94,2.49,12.05,4.68,17.89,7.4,1.41,3.46.46,7.29.77,10.9.89,10.6,1.56,16.09,0,26.93-5.19,36-27.4,62.4-54.31,86.39-56.55,50.42-143.13,54.21-203.59,7.78-39.58-30.4-61.62-89.79-54.83-140.15,3.06-22.68,10.47-39.59,20.4-59.76.42-.85.27-2.27.6-2.68.47-.58,3.91-1.39,4.94-1.38,2.47.02,5.83,1.09,8.38,1.24,9.05.56,18.2.39,27.25,1.46,2.79,14.31.85,28.11,11.65,39.48ZM3852.23,352.32c-7.49-4.96-17.44-7-26.3-4.99-.42.1-.31.94-.85,1.15-.69.28-2.83-.28-3.15.94s4.88,7.08,5.81,7.35c2.09.62,7.87-1.45,10.64-1.67,4.41-.36,13.15-.02,16.62,2.95,1.47,1.25,3.01,7.67,6.77,10.73.71.58,2.98,2.34,3.21,1.56.73-2.48-.88-2.53-1.13-3.18-1.97-5.12-6.99-11.78-11.63-14.85ZM3805.53,357.85c.45-.85.94-1.2.83-2.42-.19-2.15-6.07-7.39-7.94-6.84-1.66.49-5.31,8.87-6.58,10.51-12.02,15.5-25.4,16.2-43.18,19.32-2.99.52-2.25,1.1-.85,3.11,2.22,3.17,4.67,4.86,8.64,4.7,10.29-.42,21.22-3.07,30.27-7.88.86-.46,1.71-2.05,3.49-1.72-.35,5.92.69,11.75.63,17.67-.24,21.8-11.58,56.59,15.31,67.17,16.89,6.65,53.6-6.28,66.71-18.49,10.5-9.78,10.98-21.41,17.57-31.62,2.14-3.31,6.21-6.06,6.84-10.21.25-.23,4.15,2.32,4.74,2.73,4.57,3.17,5.61,4.38,10.98,6.85.5.23.87,2.11,3.41,1.19-1.93-6.53-9.84-7.48-14.5-10.78-3.28-2.32-1.33-3.46-1.92-4.76-.42-.94-2.04-1.43-2.73-2.26-4.08-4.92-.71-11.47-1.81-16.46-.06-.26-2.94-3.58-3.43-3.99s-4-2.8-4.31-2.42c-.45,4.31-.76,9.02.14,13.31.43,2.09,2.54,5.34,2.02,7.03s-3.52,3.76-4.49,5.27c-1.62,2.53-2.58,6.25-4.47,8.87-3.45,4.77-16.24,13.28-21.81,15.55-12.55,5.11-31.87,5.71-43.87-1.04-8.2-4.61-15.05-24.69-16.48-33.89-.54-3.51-.21-8.17-.78-11.19-.41-2.19-2.69-2.29-1.09-5.32,1.8-3.43,6.63-8.14,8.65-11.98Z"/>
      <path class="cls-1" d="M3986.4,333.56l-21.64-11.43c-17-8.87-36.63-20.24-56.38-21.49-6.34-.4-16.55-.51-22.44,1.53-6.48,2.25-14.93,9.41-17.36,15.84-2.54-.18-3.84-2.73-5.78-4.08-5.81-4.06-10.56-6.11-17.85-6.68-3.05-.24-8.36.64-10.92-.4-1.13-.46-3.44-10.15-4.38-12.4-9.28-22.04-31.94-27.73-54.09-27.3-15.87.3-31.94,2.16-47.79,2.45-5.49.1-14.72.7-19.77-.02-.83-.12-1.02.34-.9-.91,1.2-1.15,3.03-5.36,3.79-6.12,13.39-13.45,27.04-26.7,43.63-36.2,78.87-45.17,184.09-18.01,220.53,68.64,2.24,5.34,3.69,11.97,5.83,16.89,1.86,4.27,5.52,6.78,5.52,13.02v8.67ZM3811.39,239.44c-.75-.95-1.91-2.85-2.89-3.4-1.8-1.03-10.5-.68-13.18-.56-7.04.32-15.05,1.13-22.14,1.78-2.89.26-3.35.58-1.8,3.01,4.9,7.69,10.46,4.48,17.93,4.14,3.56-.16,7.23.27,10.78.02,4.17-.29,8.81-2.12,13.46-1.19.5-2.29-1.32-2.74-2.16-3.81ZM3915.51,266.91c-.48-.63-.56-1.48-1.14-2.15-1.64-1.92-8.37-8.37-5.75-2.04,2.87,6.94,18.62,21.1,25.29,23.61.8.3.02,1.65,1.65,1.17.13-.86-.01-1.56-.32-2.36-1.55-4-8.71-5.96-11.99-8.61s-5.26-6.4-7.74-9.63Z"/>
      <path class="cls-1" d="M3932.38,310.43c1.33.81,7.32,6.44,7.93,7.48,1.08,1.85,3.11,6.79-.38,7.13-3.39.33-3.44-1.47-4.82-2.26-10.7-6.11-22.57-11.47-34.79-5.03-1.06.56-1.85,1.79-3.42,2.57-2.96,1.46-10.44,2.52-12.45-.56-2.81-4.3,1.97-10.63,6.12-12.35,9.59-3.98,32.83-2.47,41.8,3.01Z"/>
    </g>
    <path class="cls-1" d="M3618.58,568.02c.37,2.37-1.09,4.3-1.52,6.55l-5.05,11.99c.4-1.17-.5-2.53-.53-3.33-.01-.28,1.01-.17,1.12-.66.96-4.17-.68-9.34,2.62-12.57l3.36-1.98Z"/>
    <path class="cls-1" d="M3677.03,128.6c.19.08.26.76.61.99,2.95,1.91,5.57,4.41,5.53,8.39-.84.94-10.69-8.06-11.95-9.28-.77-1.74,5.31-.32,5.81-.11Z"/>
    <path class="cls-1" d="M3612,578.18c-2.15-.13-.98,4.17-1.27,6.22-.35,2.47-1.32,6.32-2.02,8.77-.17.61-.58,2.02-1.48,1.17-1.46-1.38-.32-9.23.28-11.37.36-1.3,2.65-8.41,4.49-4.78Z"/>
    <path class="cls-1" d="M3660.36,289.99c.35.22.95,2.99.64,3.45-2.35,1.13-4.93.35-7.35.73-2.86.44-5.29,1.77-8.15,1.71.99-2.21,3.12-2.12,4.6-2.85,2.25-1.11,7.98-4.47,10.26-3.04Z"/>
    <path class="cls-1" d="M3634.13,592.54c.09.11.25,2.15-.4,2.43l-9.46,8.33c-.84-.67-.98-.88-.78-1.95.38-2.07,10.02-9.54,10.64-8.81Z"/>
    <path class="cls-1" d="M3616.19,317.41c.09-.08-.08-2.46,1.19-1.19s-1.1,1.12-1.19,1.19c-.37.32.83.48-1.2,1.2.17,1.8-.19.95-1.2,1.2-.21.85-.2,2.9-.3,3.02-.44.57-1.75.6-2.4,1.16-.85.73-6.12,6.75-6.87,5.98.65-.87,1.03-3.79,1.24-4.14.05-.09.96.39,1.16.27.67-.4-.07-1.46,0-1.49.36-.18,1.38.17,2.22-.2,1.65-.73,1.24-3.71,4.94-4.61.08-.31-.16-.98.03-1.17.2-.2.89.07,1.17-.03-.05-.53-.16-1.13-.58-1.5.42-.54,1.47.56,1.78.31Z"/>
    <path class="cls-1" d="M3675.22,291.29c.95.55,4.86,5.33,2.26,5.79-3.25-.81-3.55-3.84-5.06-6.29.72-.03,2.25.19,2.8.5Z"/>
    <path class="cls-1" d="M3696.93,451.39v2.39s-5.98.6-5.98.6c-1.18-1.11,4.93-3.79,5.98-2.99Z"/>
    <rect class="cls-1" x="3864.99" y="617.66" width="1.19" height="1.79"/>
    <path class="cls-1" d="M3871.57,611.69c.92,1.12-1.11,1.89-1.79.28-.59-1.42,1.7-.39,1.79-.28Z"/>
    <circle class="cls-1" cx="3967.27" cy="272.54" r=".74"/>
    <circle class="cls-1" cx="3968.47" cy="274.34" r=".74"/>
    <path class="cls-1" d="M3684.67,444.21c.39.2.39.4,0,.6v-.6Z"/>
    <path class="cls-1" d="M3618.29,315.02c.39.2.39.4,0,.6v-.6Z"/>
    <path class="cls-1" d="M3905.46,563.64c-4.93,11.04-18.48,22.9-26.89,31.93-12.35,13.26-26.07,30.79-35.61,47.6-.49.86-2.74,4.63-2.85,4.98-.22.72-.25,1.56.35,2.11-2.63-.59-1.28-.09-2.14,1.4-2.03,3.51-4.35,6.91-6.34,10.45-.44.78-.25,3.1-1.66,2.19-.21-.13-2.7-3.62-2.9-3.98-1.4-2.51-2.35-5.03-1.89-7.97,1.97-.19,5.25,4.42,6.55,3.57.65-.43,3.94-13.13,4.26-15.07,8.04-19.7,19-34.72,33.79-48.53,13.66-12.76,27.57-24.74,36.27-41.82.35-.69.47-1.46.48-2.22,1.04.23,1.2,1.15,1.22,2.07s-2.25,12.45-2.62,13.29Z"/>
    <g>
      <path class="cls-1" d="M3704.71,137.38c-6.36-1.38-7.94-8.37-7.8-14.08.3-12.35,5.82-30.98,13.78-40.48,5.25-6.26,12.81-9.16,18.74-14.79,4.87-4.62,9.26-11.87,14.2-17.04,7.18-7.52,16.8-12.04,20.98-22.1,1.88-4.54,3.27-10.46,3.5-15.32,14.44,2.27,25.43,14.77,34.99,25.11,7.75,8.38,13.34,16.48,22.65,23.7,11.49,8.9,36.38,19.32,41.29,32.58,3.86,10.42.57,21.73-3.24,31.65.85.11,1.57,0,2.36-.32,3.61-1.47,8.91-5.34,12.49-7.37,14.97-8.49,24.11-16.56,34.16-31.03,1.97-2.84,3.88-7.08,5.83-9.56.38-.49.43-1.69,1.38-.45-.99,2.88-1.15,6.61-1.99,9.38-1.33,4.34-17.07,22.95-20.94,26.6-.6.57-2.07.25-2.73,1.76-.35.81-.4,1.53.79,1.4,2.16-.25,15.24-3.52,15.89-2.95-3.39,8.51-11.56,15.86-18.77,21.29-22.5,16.94-39.49,22.18-36.84,56.15.06.81.29,3.62,1.18,3.89-.05-7.25.42-15.8,2.7-22.72.13-.39,1.78-4.69,2.69-3.59.31.38-2.07,5.28-2.32,6.34-2.11,8.85.98,16.88,2.92,25.35-1.44-.49-3.72-.26-4.94-.59-.74-.2-.64-1.52-1.28-1.63-.61-.11-3.21.58-4.83.42-1.21-.11-8.95-1.46-9.2-1.86-.22-1.42.08-2.84-.22-4.27-3.72-18.05-10.57-35.55-21.26-50.51-11.06-15.48-26.71-22.73-33.91-41.45-.46-1.2-.73-2.6-.91-3.87,1.07-.52,3.11,1.46,3.91,2.1,27.82,22.62,47.95,47.22,51.77,85.17l1.74,4.53c-.49-6.16-1.26-12.6-2.53-18.69-.62-2.98-2.07-6.22-2.79-8.68-.88-3-1.5-6.12-2.44-9.1,1.67-.33.96.45,1.39,1.28.72,1.4,1.28,2.81,1.57,4.36,2.68.92,2.22-3.26,2.83-4.92.71-1.92,6.4-10.11,8.06-12.31.48-.64,1.66-.95,1.73-1.37.27-1.64-1.76-4.26-1.71-5.18.07-1.35,4.97-12.32,5.94-14.85.19-.49.87-.51,1.05-.98,3.27-8.72,5.88-19.58,3.31-28.78-1.26-4.52-6.48-5.65-9.91-7.9-13.49-8.87-30.28-20.22-39.99-31.89-7.5-9.01-17.8-23.01-28.9-27.34-1.32-.52-4.31-1.64-5.24-.1-1.14,1.88-1.86,9.68-3.12,12.88-.56,1.41-2.45,3.47-2.71,4.53-.64,2.63,2.64,4.35,4.07,5.97.47.53.48,1.81,1.2,2.26,1.21.75,6.62.07,8.99.58,6.44,1.37,8.8,7.56,10.01,13.32,2.13,10.13,3.63,20.16,7.82,29.86,2.15,4.97,7.05,10.35,10.37,14.75,6.43,8.56,12.74,16.64,20.2,24.05,2.89,2.87,5.89,6.81,6.93,11.02.35,1.43.39,2.74.29,4.19l-3.61-5.52c-8.65-4.83-16.31-22.55-22.42-27.36-3.04-2.39-9.3-5.85-12.09-8.58-4.76-4.64-15.82-13.14-19.27-17.48-.99-1.24-1.84-4.77-3.38-6.81-2.88-3.83-6.46-4.32-9.43-9.09-.87-1.4-3.91-7.35-3.91-8.61,0-.37,2.12-6.44,2.39-7.01.52-1.11,3.86-3.45,3.57-4.9-.62-3.03-6.87-5.68-8.24-2.29-2.18,5.42-3.3,14.93-5.11,21.21-2.91,10.08-6.28,21.08-13.25,28.93-4.37,4.93-11.37,8.38-15.26,13.28-9.18,11.56-8.96,26.67-9.01,40.8l-1.24-11.66c.65-15.84,2.69-30.3,15.47-40.97,9.28-7.76,12.83-9.13,17.77-21.54,1.25-3.13,8.44-25.83,7.48-26.9-3.7,1.48-7.77,5.9-10.47,8.96-2.87,3.25-4.94,7.28-7.71,10.54-8.2,9.68-21.17,13.23-27.79,24.67-3.07,5.31-9.65,23.39-9.65,29.09v12.86ZM3856.61,197.79c.3-2.49-.88-2.49-.59,0h.59Z"/>
      <path class="cls-1" d="M3927.78,109.27c.09.08,0,1.63.29,2.39.46,1.16,1.13,2.58,1.68,3.72,1.69,3.52,6.97,15.06,8.79,17.4,1.3,1.67.66-1.33,1.82,2.97.12.45.88.48,1.11.93,16.58,33.21,52.92,77.5,15.99,111.16-4.81,2.37-6.79,6.95-10.54.2,9.55-1.08,8.25-15.24,7.8-22.46-1.06-17.08-10.2-40.93-20.46-54.9-2.93-3.99-3.22-4.57-7.79-6.45-.58-.24-.32-1.04-1.34-1.18-8.22-1.06-13.94,3.06-19.21,8.67-6.46,6.88-10.67,16.07-14.54,24.18-1.8,3.76-3.39,7.43-4.94,11.38-1.04.65-15.58-4.77-17.88-5.72-1.16-8.12-2.61-17.54,1.42-25.11.47-.88,7.77-9.3,8.32-9.63,25.67-15.26,35.75-27.7,47.52-55.67.26-.61.11-1.82.18-1.89.06-.06,1.72-.06,1.79,0Z"/>
      <path class="cls-1" d="M3771.96,80.31c.13.26.85.12.97,1.12,1.34,10.84-4.11,31.45-7.52,42.2-10.02,31.66-18.56,51.5-8.03,85.67.18.59,2.89.89-.35,3.44-4.03,3.17-4.72,1.61-6.77-2.2-3.26-6.07-5.7-13.54-5.79-20.52l4.96,5.81c2.32,4.53,2.91,8.86,2.52,13.93,1.64.27,1.06-.31,1.3-1.42,1.5-7.04-2.3-16.18-6.08-22.05-.95-1.47-2.67-1.79-3.33-4.6-.47-2.02.07-11.68.37-14.07.13-.98.87-1.75,1.01-2.58,5.3-32.63,20.19-63.45,19.3-97.03,2.09-.21,1.62,2.17,2.27,3.41,1.58,3.01,3.63,5.84,5.17,8.9Z"/>
      <path class="cls-1" d="M3946.57,89.95c.53,1.66.15,1.37.46,3.32.08.49,2.63,7.33,2.97,7.55.72.46,6.43-.31,10.01,1.65,8.29,4.53,7.3,13.15,4.19,20.68-.25.61-1.19.36-1.19,1.35,0,2.24,1.61,2.8,2.28,4.39,1.12,2.65,2.26,6.21,2.56,9.1l-22.63-32.72c-.83-2.9,2.83-1.81,2.28-5.81-.59-4.22-3.04-10.7-4.02-15.14-1.19-5.34-1.84-11.06-3.31-16.43-.52-1.91-2.55-9.64-5.22-7.97-1.9,1.19-4.87,9.98-7.74,12-1.53,1.08-2.9-1.9-1.86-4.26,2.21-5.01,7.41-10.22,9.59-15.44.13-.7.83-.46,1.23-.08.94.9,3.43,9.03,4.01,10.94,1.92,6.38,3.2,13.29,4.49,19.38.55,2.63,1.08,4.92,1.89,7.49Z"/>
      <path class="cls-1" d="M3893.1,142.17c.5.48-1.82,2.56-2.27,2.96-6.23,5.47-15.1,9.93-21.06,15.28-1.96,1.76-2.55,4.49-2.95,4.81-.25.2-1.07-.23-1.43-.09-.86.35-1.19,1.16-2.2.96,5.1-7.82,13.68-13.75,21.45-18.91.97-.64,8.06-5.38,8.45-5Z"/>
      <path class="cls-1" d="M3943.51,109.15c2.27,2.11,1.41,1.53,3.2,4.23.94,1.42,6.38,9.88,6.91,10.19s1.24-.81,1.67-.25c-.99,2.61,2.75,7.07,4.43,9.62,2.15,3.26,3.01,4.03,4.71,7.56,2.84,5.86,5.61,10.12,8.25,16.17,4.65,5.95,5.94,14.62,9.08,21.55.87,1.92,6.87,9.08,5.24,11.2-.71.93-2.51-2.75-3.58-2.39.32,3.18.37,7.23-.05,10.42-.15,1.11-2.03,8.96-2.35,9.32-1.42,1.6-1.12-2.3-1.2-2.58-9.09-31.13-32.12-57.55-44.18-87.02-.42-1.03-2.68-8.05-2.41-8.44,2.07-.94,4.63-1.21,6.67-1.89.62-.21.26-1.33,1.34-1.17,2.2.3,1.57,2.83,2.27,3.49Z"/>
    </g>
  </g>
</svg>