<svg width="58" height="58" viewBox="0 0 58 58" fill="none" xmlns="http://www.w3.org/2000/svg">
<circle cx="29" cy="29" r="29" fill="#FFFD87"/>
<path d="M24.9056 44V22C24.9056 19.5733 25.6256 17.64 27.0656 16.2C28.5056 14.7333 30.559 14 33.2256 14C34.1323 14 34.999 14.0933 35.8256 14.28C36.679 14.4667 37.399 14.76 37.9856 15.16L36.3456 19.68C35.999 19.44 35.6123 19.2533 35.1856 19.12C34.759 18.9867 34.3056 18.92 33.8256 18.92C32.919 18.92 32.2123 19.1867 31.7056 19.72C31.2256 20.2267 30.9856 21 30.9856 22.04V24.04L31.1456 26.72V44H24.9056ZM21.5856 27.76V22.96H36.5056V27.76H21.5856Z" fill="#3F4E3E"/>
</svg>
