<svg width="77" height="47" viewBox="0 0 77 47" fill="none" xmlns="http://www.w3.org/2000/svg">
<g clip-path="url(#clip0_643_2723)">
<path fill-rule="evenodd" clip-rule="evenodd" d="M30.7523 27.2918C34.2375 26.5507 37.9678 25.4984 41.853 23.6901C50.0336 19.8957 58.2391 20.2613 64.6995 25.7355C66.5146 27.277 67.5497 28.1021 69.8298 29.0951L76.4053 31.9656C77.5553 32.4696 76.9853 36.2244 75.1452 40.3548C73.3001 44.4851 70.8799 47.4396 69.7298 46.9357L59.1141 42.3162C56.789 41.3083 53.6138 40.8439 49.8585 41.8963L38.1078 45.2015C34.4775 46.2242 30.3973 46.7133 27.0521 44.9496L14.6763 38.4378C10.681 36.3232 9.44592 36.1404 7.01077 32.7808L0.70536 24.0952C-1.06476 21.6447 0.790367 19.1793 3.18552 20.0192C4.4206 18.8582 5.82069 19.041 7.39579 20.0489C11.8911 22.9342 14.9363 26.8274 19.1616 28.942C18.7065 29.3323 18.3515 29.8115 18.1415 30.3698C16.6264 34.3174 22.0367 36.8667 25.297 36.3232L35.9826 34.5446C38.6028 34.1099 41.213 34.1938 43.6531 35.2166C44.5482 35.5822 44.9432 34.2087 44.0382 33.8431C41.458 32.8204 38.6828 32.6672 35.7476 33.1563L30.7573 33.9962L25.0619 34.9349C22.7818 35.3252 18.4265 33.5911 19.4766 30.8589C19.8316 29.9499 21.0617 29.1347 22.7368 28.7987C25.2169 28.3244 27.9121 27.9045 30.7573 27.2869L30.7523 27.2918ZM40.4879 8.31495C39.1429 14.8711 32.3224 19.3078 27.0071 22.8107C21.6767 19.3078 14.8613 14.8711 13.5112 8.31495C11.9261 0.513726 22.1167 -4.17985 27.0071 5.2073C31.8824 -4.17491 42.088 0.513726 40.4879 8.31495Z" fill="#FFF5FA"/>
</g>
<defs>
<clipPath id="clip0_643_2723">
<rect width="77" height="47" fill="white" transform="matrix(-1 0 0 1 77 0)"/>
</clipPath>
</defs>
</svg>
