<svg width="686" height="201" viewBox="0 0 686 201" fill="none" xmlns="http://www.w3.org/2000/svg">
<path d="M470.04 78.5611C469.74 78.4906 468.489 77.16 468.313 76.7106C467.969 75.8293 467.608 72.7098 468.18 72.0753L506.214 53.0849C507.844 51.6309 508.073 43.4003 508.452 40.9064C508.796 38.6064 509.889 31.4861 513.299 31.9973C514.233 32.1382 514.498 34.5176 514.506 35.3283C514.568 40.175 512.515 45.6474 512.383 50.1328C512.374 50.5206 512.198 50.8995 512.77 50.785C569.442 30.5785 627.153 13.0333 685.975 0C686.107 0.775477 685.799 0.4318 685.358 0.563983C672.818 4.34444 659.433 7.02336 646.699 10.3368C618.773 17.6069 591.164 25.7934 563.784 34.8436C548.495 39.9018 530.633 45.903 516.436 53.3846C515.282 53.9926 511.255 56.3102 510.911 57.3853C510.312 61.9148 509.862 66.4619 509.157 70.9738C508.858 72.9037 506.417 84.0335 506.602 84.7121C506.672 84.9764 507.175 85.3201 507.086 85.4347L506.082 85.7607C505.157 90.114 503.526 94.3086 501.262 98.1331L500.733 98.0009C500.248 87.5672 503.658 77.5213 504.927 67.2815C505.095 65.9244 505.897 59.139 505.227 58.4604C503.729 58.8129 502.425 58.7865 500.927 59.3152C499.429 59.8439 497.49 61.0336 496.098 61.8972C489.532 65.942 483.743 71.5466 477.239 75.706L477.187 76.9749C475.257 76.2788 474.234 78.0677 472.437 78.4466C471.829 78.5788 470.604 78.6933 470.04 78.5611C473.873 79.4512 478.068 78.8784 482.077 79.3631C487.003 79.9535 489.339 82.1301 488.299 87.2941C491.348 87.1443 494.397 86.4393 497.428 86.2366C497.86 86.2102 499.226 86.0075 499.411 86.4922L484.51 92.0967C481.346 93.6829 479.381 97.1109 477.046 99.1906C471.97 103.711 463.774 107.342 458.416 111.783C452.556 116.639 447.392 122.243 440.854 126.5C440.061 127.011 438.122 128.324 437.346 128.553C436.994 128.659 436.853 128.518 436.959 128.165C437.064 127.813 438.21 126.456 438.554 126.05C442.246 121.609 447.198 117.229 451.508 113.343C458.002 107.483 464.929 102.09 471.353 96.1504C463.246 98.1331 455.112 100.275 446.837 101.543C446.352 101.614 445.85 101.517 445.427 101.579C440.995 102.222 437.223 102.663 432.729 102.901C423.749 103.368 413.694 101.949 405.296 105.5C401.26 107.201 395.488 111.131 391.056 111.122C388.033 111.122 386.182 107.219 388.8 105.139L393.303 102.107L382.455 105.412C374.788 128.447 366.135 152.884 352.291 172.993C351.621 173.962 350.819 175.311 350.176 176.166C346.898 180.528 340.747 187.401 335.503 189.137C334.049 189.613 332.357 189.948 330.859 189.657C330.101 188.864 340.421 172.367 341.504 170.526C341.707 170.182 341.645 169.653 341.707 169.556C342.527 168.217 343.699 166.622 344.615 165.062C344.659 164.992 344.95 164.868 345.1 164.63C356.159 145.887 367.439 127.152 376.11 107.139C360.971 110.92 345.505 113.643 329.802 112.955L332.084 113.449C339.716 114.515 347.417 115.22 355.022 116.436C357.966 116.903 363.165 117.476 365.703 118.727C366.593 119.168 368.91 120.71 366.989 120.904C344.139 123.266 321.086 114.092 298.571 111.633C294.218 111.158 289.741 110.849 285.344 111.105C284.313 111.166 282.401 111.307 281.546 111.678C280.788 112.004 274.919 116.745 275.554 117.185C280.938 117.828 286.322 118.569 291.698 119.3C296.359 119.935 301.065 120.463 305.727 121.151C309.34 121.679 319.016 122.614 321.21 125.381C321.368 125.574 321.368 125.671 321.333 125.909C317.632 126.147 313.931 126.262 310.221 126.174C305.753 126.068 301.162 125.715 296.729 125.116C288.781 124.032 280.903 121.97 273.033 120.463C272.099 120.596 269.367 126.05 268.301 126.72C267.235 127.39 263.261 127.557 262.318 126.588C260.881 125.099 261.207 120.111 262.071 118.243C258.59 117.696 255.092 117.053 251.584 116.683C249.619 116.48 246.015 115.969 244.208 116.119C243.107 116.207 232.03 119.036 231.387 119.441C230.523 119.987 228.699 122.235 227.941 123.142C226.822 124.482 222.09 131.593 221.385 131.928C220.186 132.501 216.529 132.571 215.613 131.479C214.943 130.677 214.397 127.363 214.494 126.359C214.529 126.024 215.445 124.587 214.573 124.852C213.013 125.328 209.735 127.592 208.263 128.597C206.941 129.505 202.201 133.708 201.451 133.955C200.87 134.149 196.182 134.387 195.256 134.369C194.71 134.36 194.111 134.008 193.52 134.096C192.983 133.532 195.212 132.712 193.794 131.056C189.749 126.341 179.544 131.972 174.081 131.717C168.776 131.47 166.784 128.615 167.612 123.407C167.868 121.803 172.309 119.327 173.772 118.454C177.755 116.075 190.56 110.356 192.595 107.113C194.375 104.275 191.079 100.045 188.691 98.609C182.285 94.7757 170.353 94.0442 164.422 99.0496C163.806 99.5695 159.408 103.888 159.258 104.222C158.871 105.068 159.893 107.404 158.818 109.589C156.87 113.555 152.394 113.581 151.98 108.593C150.437 90.0876 179.209 84.5711 191.925 92.4669C199.724 97.3136 201.011 108.743 202.597 116.983C202.8 117.467 203.214 117.873 203.734 117.969C208.21 117.802 212.714 117.582 217.181 117.203C222.09 102.152 226.804 87.0209 232.241 72.1458C236.181 61.3596 240.128 51.4635 245.407 41.2677C245.962 40.1926 246.649 38.5007 247.196 37.6371C247.363 37.3639 247.187 37.17 247.795 37.3022C247.998 40.3248 247.681 43.0654 247.266 46.0263C246.984 48.0179 246.702 49.9742 246.13 51.9041C241.38 67.9776 233.969 84.2979 228.734 100.38C228.479 101.173 227.192 104.178 227.976 104.725C228.302 104.954 231.563 104.02 232.171 103.808C243.036 100.098 250.377 88.4925 262.344 87.0209C262.459 88.9948 262.379 90.6075 261.516 92.414C258.414 98.9174 246.103 100.301 244.138 105.729C243.821 106.602 243.415 108.902 244.235 109.483C244.94 109.986 248.377 111.087 249.434 111.431C253.831 112.858 258.449 113.801 262.97 114.779L263.419 114.154C266.001 106.223 268.195 98.0714 270.813 90.2021C272.328 85.6197 273.985 80.7378 275.58 76.1818C278.62 67.493 282.26 58.9715 285.238 50.265L294.359 32.0149C295.002 36.8704 293.936 41.8229 292.905 46.5639C288.279 58.8129 284.181 71.2558 279.801 83.5929C278.241 87.9991 276.267 92.2554 275.034 96.8201C275.016 96.8994 274.637 97.1373 274.558 97.5251C274.417 98.2477 274.54 99.0055 274.505 99.737C275.289 99.9308 276.029 99.3404 276.62 99.2082C281.185 98.186 282.894 96.9875 286.675 94.4496C292.632 90.4489 301.056 82.65 308.326 82.0772C309.305 81.9979 309.216 82.6588 309.19 83.4784C308.882 93.9649 294.006 93.6036 290.913 100.803C290.808 101.05 290.49 101.129 290.393 101.737C290.314 102.24 290.279 103.87 290.508 104.249C290.623 104.434 293.592 105.659 294.086 105.835C297.267 106.945 300.898 107.818 304.193 108.567C305.057 108.761 308.432 109.651 308.978 109.501C309.278 109.422 309.763 108.831 310.221 108.602C311.12 108.161 315.129 106.69 315.455 106.293C315.737 105.95 317.491 99.3668 317.967 98.0979C322.347 86.4217 330.903 77.7152 343.161 74.3489C344.65 73.9435 349.726 73.2297 351.057 73.6263C351.956 73.8907 353.093 76.3493 353.093 77.1424V82.5619L383.794 71.714C382.446 62.6991 382.746 52.8646 384.402 43.8938C387.531 26.9743 397.136 15.6065 415.413 16.1705C417.607 16.241 422.33 16.5406 424.348 17.0253C427.441 17.7567 428.402 21.9072 427.979 24.639C423.485 24.216 420.832 20.0743 416.197 19.6161C399.727 17.9682 391.135 29.1421 388.104 43.9026C386.482 51.7807 386.05 60.6194 387.522 68.524C389.76 68.806 391.902 67.916 393.981 67.2374C399.612 65.3868 405.014 62.7696 410.636 60.875C415.087 59.3769 418.541 58.2665 422.956 56.5305C436.086 51.3577 449.666 46.9957 463.166 42.898C467.872 41.4704 472.719 40.034 477.46 38.6681C481.734 37.4344 486.096 36.1214 490.423 35.0903C498.16 33.2486 508.558 30.7547 516.304 29.7413C516.621 29.6973 517.679 29.3976 517.688 29.9264C507.985 32.4379 498.16 34.6585 488.528 37.408C484.386 38.5888 480.271 40.0428 476.147 41.303C471.37 42.757 466.612 44.2815 461.853 45.7972C436.932 53.7723 412.575 62.4083 388.835 73.4589L388.227 74.1726C386.791 82.6148 386.2 91.1979 384.059 99.499L406.389 96.3442C409.041 86.4569 412.972 76.8428 421.555 70.7182C424.903 68.3301 431.601 64.8757 435.602 64.1267C436.439 63.9681 441.241 63.4834 441.761 63.6332C444.423 64.4263 444.352 70.6389 444.017 72.7979C442.748 80.8435 429.072 85.7255 423.494 90.8983C422.991 91.3565 421.326 93.0661 421.123 93.5508C420.938 93.9914 421.29 93.9033 421.449 94.0002C421.96 94.2998 424.154 95.1634 424.701 95.2427C428.384 95.7979 433.451 95.5423 437.258 95.5247C441.885 95.5071 445.383 95.3837 449.957 94.7316C459.87 93.3216 469.564 90.678 479.398 88.845C482.042 87.1971 481.654 85.0822 478.799 84.0247C473.75 82.1477 461.069 83.0906 460.02 75.6883C459.509 72.0841 462.285 67.1317 464.523 64.4527C465.369 63.4393 466.77 62.4876 467.431 61.4037C470.225 59.5884 474.217 56.6803 477.46 59.1742C478.041 59.6148 479.742 61.6681 478.923 62.2232C478.632 62.4171 475.468 62.9282 474.64 63.1838C469.626 64.6907 464.356 68.242 465.123 74.1638C465.528 77.2834 467.423 77.9795 470.084 78.5964L470.04 78.5611ZM435.372 71.15C426.93 72.4983 413.483 79.0017 415.527 89.4002C419.757 87.0826 424.11 84.7914 427.935 81.8393C431.187 79.3278 435.478 75.5826 435.364 71.15H435.372ZM383.706 75.186C382.975 74.3401 378.824 75.7677 377.74 76.1025C368.963 78.8431 360.283 83.0642 351.559 86.0427C347.206 92.6695 338.887 95.2163 333.098 100.257C332.586 100.706 329.74 103.297 330.313 103.949C330.454 104.108 333.855 104.936 334.411 105.28C341.945 105.156 349.101 105.87 356.609 104.971C364.117 104.073 371.343 102.099 378.692 100.733C379.256 98.5826 380.102 96.5029 380.631 94.3351C381.16 92.1672 381.274 90.0435 381.724 88.0167C382.243 85.6638 385.24 76.9485 383.706 75.186ZM344.342 80.9404C340.015 81.663 335.574 83.4255 331.934 85.8577C327.572 88.7745 323.025 93.445 324.506 99.1906C329.414 96.6879 334.93 93.7358 339.063 90.0699C341.54 87.8757 344.739 84.4653 344.351 80.9404H344.342ZM277.651 99.9837C274.813 100.01 274.144 101.614 274.479 104.214C274.902 104.689 278.039 100.874 277.651 99.9837ZM231.078 105.007C228.311 105.007 227.06 106.901 227.906 109.501C228.576 109.078 231.616 105.535 231.078 105.007ZM190.568 120.86C191.247 119.899 189.546 119.062 188.638 119.062C186.444 119.062 182.611 120.393 180.549 121.301C180.223 121.442 179.491 121.556 179.474 121.944C181.315 121.944 183.016 122.349 184.893 122.208C185.607 122.155 190.348 121.16 190.56 120.869L190.568 120.86Z" fill="#FFFD87"/>
<path d="M543.077 22.7532C541.967 23.8459 539.931 24.4275 538.424 24.8417C535.516 25.6524 532.335 26.1107 529.312 26.1812C529.656 25.4762 530.564 25.1237 531.251 24.8153C534.767 23.2379 539.253 22.8589 543.077 22.7444V22.7532Z" fill="#FFFD87"/>
<path d="M527.196 26.1899C526.923 28.5604 523.416 27.6439 521.645 28.0405C521.645 27.6616 522.394 27.5206 522.711 27.3884C523.345 27.1328 526.844 25.8639 527.196 26.1899Z" fill="#FFFD87"/>
<path d="M518.699 81.2312C519.36 81.6806 518.946 84.1392 517.695 83.2932C517.034 82.8438 517.448 80.3852 518.699 81.2312Z" fill="#FFFD87"/>
<path d="M139.519 137.277C151.01 134.563 164.07 133.444 174.689 139.551C191.3 149.103 192.331 172.676 186.62 188.996C185.492 192.23 181.765 201.175 177.279 200.188C149.6 184.193 115.162 184.898 84.9447 192.644C77.9742 194.433 70.6248 196.689 63.998 199.483C62.7907 199.994 60.4467 201.915 59.5214 199.915C58.2965 197.236 61.3984 191.992 63.434 190.203C65.9455 187.992 71.6382 186.37 74.9428 184.775C86.3987 179.232 105.416 168.393 113.153 158.426C118.405 151.659 116.158 147.076 113.003 140.106C93.7305 97.437 43.9501 74.437 1.14909 62.5317C-1.08922 61.2627 0.461739 57.4911 1.44871 55.7286C4.53299 50.2033 8.40157 49.8156 14.0943 48.529C49.5724 40.5275 104.094 39.3202 131.332 67.5723C149.688 86.6067 148.948 114.048 139.528 137.277H139.519ZM131.05 140.45C133.579 133.338 135.659 126.2 136.346 118.63C140.814 68.9734 83.9137 52.7501 44.3819 56.0635L30.767 57.1386L35.5345 59.3769C51.6961 65.4661 67.4348 72.8949 81.4462 83.0554C81.8075 83.1347 81.9485 83.0378 81.834 82.6676C81.4462 81.3546 79.6485 79.2309 79.4635 77.8826C79.0669 74.9746 82.1336 70.2953 84.3543 68.524C85.7907 67.3784 87.9232 66.2064 89.0336 68.3389C100.005 89.832 111.452 111.202 124.6 131.452C126.212 133.937 128.486 137.912 130.31 140.027C130.548 140.3 130.566 140.582 131.059 140.467L131.05 140.45ZM81.9662 83.3198V83.5841C82.1336 83.496 82.1336 83.4079 81.9662 83.3198ZM179.482 185.154C181.553 172.843 178.434 157.915 166.863 151.35C159.672 147.27 149.045 146.971 141.008 148.151C139.492 148.372 137.897 149.015 136.355 149.182C142.594 158.805 149.662 167.9 155.989 177.435C164.149 178.933 171.992 181.708 179.491 185.154H179.482ZM123.639 153.95L123.093 154.117C118.572 163.538 111.073 170.799 103.265 177.487C114.721 175.646 126.327 174.553 137.933 175.108L123.639 153.95Z" fill="#FFFD87"/>
</svg>
